<svg width="18" height="18" viewBox="0 0 18 18" fill="none" xmlns="http://www.w3.org/2000/svg">
<g clip-path="url(#clip0_49724_67978)">
<path d="M11.8828 12.8672C12.2711 12.8672 12.5859 12.5524 12.5859 12.1641C12.5859 11.7757 12.2711 11.4609 11.8828 11.4609C11.4945 11.4609 11.1797 11.7757 11.1797 12.1641C11.1797 12.5524 11.4945 12.8672 11.8828 12.8672Z" fill="#2530F0"/>
<path d="M8.36715 16.5937H2.81249C2.03709 16.5937 1.40624 15.9628 1.40624 15.1874V9.42184C1.40624 8.64643 2.03709 8.01559 2.81249 8.01559H12.9374C13.7129 8.01559 14.3437 8.64643 14.3437 9.42184V10.8281C14.3437 11.2164 14.6585 11.5312 15.0468 11.5312C15.4352 11.5312 15.7499 11.2164 15.7499 10.8281V9.42184C15.7499 7.87103 14.4883 6.60935 12.9374 6.60935H12.0924V4.12965C12.0924 1.85255 10.1999 0 7.87367 0C5.54746 0 3.65493 1.85255 3.65493 4.12965V6.60935H2.81249C1.26168 6.60935 0 7.87103 0 9.42184V15.1874C0 16.7382 1.26168 17.9999 2.81249 17.9999H8.36715C8.75549 17.9999 9.07028 17.6851 9.07028 17.2968C9.07028 16.9085 8.75549 16.5937 8.36715 16.5937ZM5.06118 4.12965C5.06118 2.62795 6.32286 1.40624 7.87367 1.40624C9.42447 1.40624 10.6862 2.62795 10.6862 4.12965V6.60935H5.06118V4.12965Z" fill="#2530F0"/>
<path d="M17.7048 11.4518C17.389 11.2257 16.9497 11.2984 16.7238 11.6142L13.258 16.4552C13.1634 16.565 13.0448 16.5887 12.9812 16.5929C12.916 16.5972 12.7905 16.5889 12.68 16.4853L10.4403 14.2996C10.1624 14.0283 9.71722 14.0338 9.44602 14.3117C9.17479 14.5896 9.18021 15.0348 9.45815 15.306L11.7018 17.4956C11.7039 17.4976 11.706 17.4996 11.7081 17.5016C12.0445 17.8219 12.4935 18 12.9554 18C12.9951 18 13.0349 17.9987 13.0747 17.996C13.5779 17.9625 14.0478 17.7178 14.3637 17.3247C14.3719 17.3145 14.3798 17.3041 14.3874 17.2935L17.8672 12.4328C18.0932 12.1171 18.0205 11.6778 17.7048 11.4518Z" fill="#2530F0"/>
<path d="M9.21093 12.8672C9.59926 12.8672 9.91406 12.5524 9.91406 12.1641C9.91406 11.7757 9.59926 11.4609 9.21093 11.4609C8.82261 11.4609 8.50781 11.7757 8.50781 12.1641C8.50781 12.5524 8.82261 12.8672 9.21093 12.8672Z" fill="#2530F0"/>
<path d="M3.9375 12.8672C4.32582 12.8672 4.64062 12.5524 4.64062 12.1641C4.64062 11.7757 4.32582 11.4609 3.9375 11.4609C3.54917 11.4609 3.23438 11.7757 3.23438 12.1641C3.23438 12.5524 3.54917 12.8672 3.9375 12.8672Z" fill="#2530F0"/>
<path d="M6.57422 12.8672C6.96254 12.8672 7.27734 12.5524 7.27734 12.1641C7.27734 11.7757 6.96254 11.4609 6.57422 11.4609C6.18589 11.4609 5.87109 11.7757 5.87109 12.1641C5.87109 12.5524 6.18589 12.8672 6.57422 12.8672Z" fill="#2530F0"/>
</g>
<defs>
<clipPath id="clip0_49724_67978">
<rect width="18" height="18" fill="white"/>
</clipPath>
</defs>
</svg>
