<svg width="10" height="16" viewBox="0 0 10 16" fill="none" xmlns="http://www.w3.org/2000/svg">
<path fill-rule="evenodd" clip-rule="evenodd" d="M9.04012 15.0869C9.22739 14.8994 9.33257 14.6453 9.33257 14.3803C9.33257 14.1153 9.22739 13.8611 9.04012 13.6736L3.08012 7.71361L9.04012 1.75361C9.13837 1.66206 9.21717 1.55166 9.27183 1.42899C9.32648 1.30633 9.35587 1.17391 9.35824 1.03964C9.36061 0.905368 9.33591 0.771997 9.28562 0.64748C9.23532 0.522962 9.16046 0.40985 9.0655 0.314892C8.97055 0.219934 8.85743 0.145073 8.73292 0.0947781C8.6084 0.0444832 8.47503 0.0197849 8.34076 0.0221539C8.20649 0.0245228 8.07407 0.0539112 7.9514 0.108567C7.82874 0.163223 7.71834 0.242025 7.62679 0.340275L0.96012 7.00694C0.772853 7.19444 0.667666 7.44861 0.667666 7.71361C0.667666 7.97861 0.772853 8.23277 0.96012 8.42027L7.62679 15.0869C7.81429 15.2742 8.06845 15.3794 8.33345 15.3794C8.59845 15.3794 8.85262 15.2742 9.04012 15.0869Z" fill="#8C8A91"/>
</svg>
