<svg width="1920" height="688" viewBox="0 0 1920 688" fill="none" xmlns="http://www.w3.org/2000/svg">
<g clip-path="url(#clip0_3346_19014)">
<rect width="1922" height="687.166" transform="translate(0 0.212891)" fill="#F8F9FA"/>
<g filter="url(#filter0_d_3346_19014)">
<path d="M2646.78 60.2128C2646.78 553.214 2209.41 952.87 1669.9 952.87C1130.39 952.87 693.023 553.214 693.023 60.2128C693.023 -432.788 1130.39 -832.445 1669.9 -832.445C2209.41 -832.445 2646.78 -432.788 2646.78 60.2128ZM1191.12 60.2128C1191.12 301.841 1405.48 497.719 1669.9 497.719C1934.33 497.719 2148.68 301.841 2148.68 60.2128C2148.68 -181.415 1934.33 -377.294 1669.9 -377.294C1405.48 -377.294 1191.12 -181.415 1191.12 60.2128Z" fill="url(#paint0_linear_3346_19014)"/>
</g>
</g>
<defs>
<filter id="filter0_d_3346_19014" x="472.723" y="-1052.74" width="2394.35" height="2225.92" filterUnits="userSpaceOnUse" color-interpolation-filters="sRGB">
<feFlood flood-opacity="0" result="BackgroundImageFix"/>
<feColorMatrix in="SourceAlpha" type="matrix" values="0 0 0 0 0 0 0 0 0 0 0 0 0 0 0 0 0 0 127 0" result="hardAlpha"/>
<feMorphology radius="13" operator="dilate" in="SourceAlpha" result="effect1_dropShadow_3346_19014"/>
<feOffset/>
<feGaussianBlur stdDeviation="103.65"/>
<feComposite in2="hardAlpha" operator="out"/>
<feColorMatrix type="matrix" values="0 0 0 0 0.495833 0 0 0 0 0.495833 0 0 0 0 0.495833 0 0 0 0.25 0"/>
<feBlend mode="normal" in2="BackgroundImageFix" result="effect1_dropShadow_3346_19014"/>
<feBlend mode="normal" in="SourceGraphic" in2="effect1_dropShadow_3346_19014" result="shape"/>
</filter>
<linearGradient id="paint0_linear_3346_19014" x1="1669.9" y1="-832.445" x2="1669.9" y2="952.87" gradientUnits="userSpaceOnUse">
<stop stop-color="#DCDCDC"/>
<stop offset="1" stop-color="#F8F9FA"/>
</linearGradient>
<clipPath id="clip0_3346_19014">
<rect width="1922" height="687.166" fill="white" transform="translate(0 0.212891)"/>
</clipPath>
</defs>
</svg>
