<svg width="18" height="16" viewBox="0 0 18 16" fill="none" xmlns="http://www.w3.org/2000/svg">
<path d="M9.00143 5.05066L6.40577 0.469875C6.49195 0.382128 6.5911 0.324573 6.69026 0.285889C5.92481 0.537808 5.5736 1.39736 5.5736 1.39736L0.831715 9.76355C0.764993 10.0258 0.746458 10.2627 0.754798 10.4712H5.93037L9.00143 5.05066Z" fill="#34A853"/>
<path d="M9.00098 5.05066L12.072 10.4712H17.2476C17.2559 10.2627 17.2374 10.0258 17.1707 9.76355L12.4288 1.39736C12.4288 1.39736 12.0767 0.537808 11.3121 0.285889C11.4104 0.324573 11.5105 0.382128 11.5966 0.469875L9.00098 5.05066Z" fill="#FBBC05"/>
<path d="M9.00191 5.05073L11.5976 0.469937C11.5114 0.38219 11.4113 0.324635 11.3131 0.285951C11.2 0.249154 11.0786 0.224622 10.947 0.218018H10.8099H7.19394H7.05679C6.92612 0.223679 6.8038 0.24821 6.69075 0.285951C6.59252 0.324635 6.49243 0.38219 6.40625 0.469937L9.00191 5.05073Z" fill="#188038"/>
<path d="M5.93117 10.4712L3.36516 15.0001C3.36516 15.0001 3.2799 14.9586 3.16406 14.8727C3.52825 15.1529 3.88225 15.2124 3.88225 15.2124H13.96C14.516 15.2124 14.6319 15.0001 14.6319 15.0001C14.6337 14.9991 14.6347 14.9982 14.6365 14.9973L12.0724 10.4712H5.93117Z" fill="#4285F4"/>
<path d="M5.93143 10.4712H0.755859C0.781807 11.0864 1.04869 11.4458 1.04869 11.4458L1.2433 11.7836C1.2572 11.8034 1.26554 11.8148 1.26554 11.8148L1.68904 12.5583L2.63982 14.2132C2.66762 14.2802 2.70006 14.3415 2.73435 14.4C2.74732 14.4198 2.75937 14.4415 2.77327 14.4604C2.77697 14.4661 2.78068 14.4717 2.78439 14.4774C2.90208 14.6434 3.03367 14.7718 3.16526 14.8727C3.28109 14.9595 3.36635 15.0001 3.36635 15.0001L5.93143 10.4712Z" fill="#1967D2"/>
<path d="M12.0723 10.4712H17.2478C17.2219 11.0864 16.955 11.4458 16.955 11.4458L16.7604 11.7836C16.7465 11.8034 16.7382 11.8148 16.7382 11.8148L16.3147 12.5583L15.3639 14.2132C15.3361 14.2802 15.3036 14.3415 15.2694 14.4C15.2564 14.4198 15.2443 14.4415 15.2304 14.4604C15.2267 14.4661 15.223 14.4717 15.2193 14.4774C15.1016 14.6434 14.97 14.7718 14.8384 14.8727C14.7226 14.9595 14.6373 15.0001 14.6373 15.0001L12.0723 10.4712Z" fill="#EA4335"/>
</svg>
