<svg width="24" height="25" viewBox="0 0 24 25" fill="none" xmlns="http://www.w3.org/2000/svg">
<path d="M19.439 15.939C21 14.5 22 12.5 22 12.5C20.5 9.5 16.6892 5.5 12 5.5C11.0922 5.5 10.2294 5.65476 9.41827 5.91827M17 17.9186C15.5657 18.8368 13.8793 19.5 12 19.5C7.31078 19.5 3.5 15.5 2 12.5C2 12.5 3.5 9.5 6.5 7.41847" stroke="#06000F" stroke-width="1.5" stroke-linecap="round" stroke-linejoin="round"/>
<path d="M9.85786 10.5C9.32783 11.03 9 11.7623 9 12.5711C9 14.1887 10.3113 15.5 11.9289 15.5C12.7377 15.5 13.47 15.1722 14 14.6421" stroke="#06000F" stroke-width="1.5" stroke-linecap="round" stroke-linejoin="round"/>
<path d="M3 3.5L21 21.5" stroke="#06000F" stroke-width="1.5" stroke-linecap="round" stroke-linejoin="round"/>
</svg>
