<svg width="25" height="24" viewBox="0 0 25 24" fill="none" xmlns="http://www.w3.org/2000/svg">
<g clip-path="url(#clip0_3346_18386)">
<path d="M23.4318 9.95969L13.8591 9.95923C13.4364 9.95923 13.0938 10.3018 13.0938 10.7245V13.7826C13.0938 14.2052 13.4364 14.5479 13.8591 14.5479H19.2498C18.6595 16.0798 17.5578 17.3627 16.1521 18.1779L18.4507 22.157C22.138 20.0245 24.3179 16.2829 24.3179 12.0943C24.3179 11.4979 24.2739 11.0716 24.186 10.5916C24.1192 10.2268 23.8026 9.95969 23.4318 9.95969Z" fill="#167EE6"/>
<path d="M12.5848 19.1427C9.94667 19.1427 7.64362 17.7013 6.4067 15.5684L2.42773 17.8618C4.4526 21.3712 8.24583 23.7344 12.5848 23.7344C14.7134 23.7344 16.7218 23.1613 18.452 22.1626V22.1571L16.1534 18.178C15.102 18.7878 13.8853 19.1427 12.5848 19.1427Z" fill="#12B347"/>
<path d="M18.4512 22.1626V22.1571L16.1526 18.178C15.1011 18.7878 13.8845 19.1427 12.584 19.1427V23.7344C14.7125 23.7344 16.7211 23.1613 18.4512 22.1626Z" fill="#0F993E"/>
<path d="M5.44133 11.9999C5.44133 10.6996 5.7962 9.48298 6.40588 8.43161L2.42692 6.13818C1.42267 7.86291 0.849609 9.86591 0.849609 11.9999C0.849609 14.1339 1.42267 16.1369 2.42692 17.8617L6.40588 15.5682C5.7962 14.5168 5.44133 13.3003 5.44133 11.9999Z" fill="#FFD500"/>
<path d="M12.5848 4.85734C14.3051 4.85734 15.8853 5.46863 17.1196 6.48544C17.4241 6.73626 17.8666 6.71816 18.1456 6.43924L20.3123 4.2725C20.6288 3.95604 20.6062 3.43803 20.2682 3.14476C18.2002 1.35073 15.5095 0.265625 12.5848 0.265625C8.24583 0.265625 4.4526 2.62886 2.42773 6.13827L6.4067 8.4317C7.64362 6.29874 9.94667 4.85734 12.5848 4.85734Z" fill="#FF4B26"/>
<path d="M17.1188 6.48544C17.4233 6.73626 17.8659 6.71816 18.1447 6.43924L20.3115 4.2725C20.6279 3.95604 20.6053 3.43803 20.2673 3.14476C18.1994 1.35069 15.5087 0.265625 12.584 0.265625V4.85734C14.3043 4.85734 15.8845 5.46863 17.1188 6.48544Z" fill="#D93F21"/>
</g>
<defs>
<clipPath id="clip0_3346_18386">
<rect width="23.4688" height="23.4688" fill="white" transform="translate(0.849609 0.265625)"/>
</clipPath>
</defs>
</svg>
