<svg width="24" height="25" viewBox="0 0 24 25" fill="none" xmlns="http://www.w3.org/2000/svg">
<path d="M19.439 15.523C21 14.084 22 12.084 22 12.084C20.5 9.08398 16.6892 5.08398 12 5.08398C11.0922 5.08398 10.2294 5.23874 9.41827 5.50225M17 17.5026C15.5657 18.4208 13.8793 19.084 12 19.084C7.31078 19.084 3.5 15.084 2 12.084C2 12.084 3.5 9.08398 6.5 7.00245" stroke="#22CAAD" stroke-width="1.5" stroke-linecap="round" stroke-linejoin="round"/>
<path d="M9.85786 10.084C9.32783 10.614 9 11.3463 9 12.1551C9 13.7727 10.3113 15.084 11.9289 15.084C12.7377 15.084 13.47 14.7562 14 14.2261" stroke="#22CAAD" stroke-width="1.5" stroke-linecap="round" stroke-linejoin="round"/>
<path d="M3 3.08398L21 21.084" stroke="#22CAAD" stroke-width="1.5" stroke-linecap="round" stroke-linejoin="round"/>
</svg>
