<svg width="27" height="28" viewBox="0 0 27 28" fill="none" xmlns="http://www.w3.org/2000/svg">
<g clip-path="url(#clip0_3346_18396)">
<path d="M18.4248 0.984375H18.61C18.7586 2.82015 18.0579 4.19184 17.2063 5.18518C16.3707 6.17165 15.2265 7.1284 13.3758 6.98323C13.2524 5.17375 13.9542 3.90379 14.8047 2.91274C15.5934 1.98914 17.0394 1.16727 18.4248 0.984375ZM24.027 20.092V20.1435C23.5069 21.7186 22.7651 23.0686 21.8598 24.3214C21.0333 25.4588 20.0205 26.9893 18.2122 26.9893C16.6496 26.9893 15.6117 25.9846 14.0103 25.9571C12.3162 25.9297 11.3846 26.7973 9.83574 27.0156H9.30764C8.17028 26.851 7.25239 25.9503 6.58369 25.1387C4.61189 22.7405 3.08817 19.6428 2.80469 15.6786V14.5138C2.92471 11.6767 4.30326 9.36997 6.13561 8.25205C7.10265 7.65765 8.43205 7.15127 9.91233 7.37759C10.5467 7.4759 11.1949 7.69308 11.763 7.90798C12.3014 8.11488 12.9746 8.4818 13.6125 8.46237C14.0445 8.4498 14.4743 8.22461 14.9099 8.06573C16.1855 7.60507 17.4361 7.07697 19.0844 7.32501C21.0653 7.6245 22.4713 8.50467 23.34 9.86264C21.6643 10.9291 20.3395 12.5363 20.5658 15.2808C20.767 17.7739 22.2164 19.2324 24.027 20.092Z" fill="white"/>
</g>
<defs>
<clipPath id="clip0_3346_18396">
<rect width="26.0312" height="26.0312" fill="white" transform="translate(0.400391 0.984375)"/>
</clipPath>
</defs>
</svg>
