<svg width="24" height="24" viewBox="0 0 24 24" fill="none" xmlns="http://www.w3.org/2000/svg">
<g clip-path="url(#clip0_3346_18409)">
<path d="M20.7273 0H3.27273C1.46525 0 0 1.46525 0 3.27273V20.7273C0 22.5347 1.46525 24 3.27273 24H20.7273C22.5347 24 24 22.5347 24 20.7273V3.27273C24 1.46525 22.5347 0 20.7273 0Z" fill="#0077B5"/>
<path d="M8.64169 6.54545C8.64169 6.95001 8.52173 7.34547 8.29697 7.68185C8.07221 8.01822 7.75276 8.28039 7.379 8.43521C7.00524 8.59002 6.59397 8.63053 6.19719 8.55161C5.80041 8.47268 5.43594 8.27787 5.14988 7.99181C4.86382 7.70575 4.66901 7.34128 4.59009 6.9445C4.51116 6.54772 4.55167 6.13645 4.70648 5.76269C4.8613 5.38894 5.12347 5.06948 5.45984 4.84472C5.79622 4.61996 6.19168 4.5 6.59624 4.5C7.13873 4.5 7.65899 4.7155 8.04259 5.0991C8.42619 5.4827 8.64169 6.00297 8.64169 6.54545ZM8.17806 9.95455V18.9914C8.17841 19.058 8.16559 19.1241 8.14033 19.1858C8.11507 19.2475 8.07786 19.3036 8.03085 19.3509C7.98383 19.3981 7.92794 19.4356 7.86638 19.4612C7.80482 19.4868 7.73881 19.5 7.67215 19.5H5.51624C5.44957 19.5002 5.38353 19.4872 5.3219 19.4618C5.26027 19.4363 5.20428 19.399 5.15714 19.3518C5.11 19.3047 5.07264 19.2487 5.04721 19.1871C5.02178 19.1254 5.00878 19.0594 5.00896 18.9927V9.95455C5.00896 9.82001 5.06241 9.69098 5.15754 9.59585C5.25267 9.50072 5.3817 9.44727 5.51624 9.44727H7.67215C7.80645 9.44763 7.93512 9.50124 8.02996 9.59633C8.1248 9.69142 8.17806 9.82024 8.17806 9.95455ZM19.4471 14.6591V19.0336C19.4473 19.0949 19.4354 19.1557 19.412 19.2123C19.3886 19.269 19.3543 19.3205 19.311 19.3638C19.2676 19.4071 19.2161 19.4415 19.1595 19.4649C19.1028 19.4882 19.0421 19.5002 18.9808 19.5H16.6626C16.6013 19.5002 16.5406 19.4882 16.4839 19.4649C16.4273 19.4415 16.3758 19.4071 16.3324 19.3638C16.2891 19.3205 16.2547 19.269 16.2314 19.2123C16.208 19.1557 16.1961 19.0949 16.1962 19.0336V14.7941C16.1962 14.1614 16.3817 12.0232 14.5421 12.0232C13.1171 12.0232 12.8267 13.4864 12.7694 14.1436V19.0336C12.7694 19.1562 12.7212 19.2738 12.6352 19.361C12.5493 19.4483 12.4324 19.4982 12.3099 19.5H10.0708C10.0096 19.5 9.94902 19.4879 9.89252 19.4645C9.83601 19.441 9.78469 19.4066 9.74149 19.3633C9.6983 19.32 9.66407 19.2686 9.64079 19.212C9.6175 19.1554 9.6056 19.0948 9.60578 19.0336V9.915C9.6056 9.85382 9.6175 9.79321 9.64079 9.73663C9.66407 9.68006 9.6983 9.62864 9.74149 9.58531C9.78469 9.54199 9.83601 9.50762 9.89252 9.48416C9.94902 9.46071 10.0096 9.44864 10.0708 9.44864H12.3099C12.4336 9.44864 12.5522 9.49777 12.6396 9.58523C12.7271 9.67269 12.7762 9.79131 12.7762 9.915V10.7032C13.3053 9.90955 14.0894 9.29727 15.7626 9.29727C19.469 9.29727 19.4471 12.7582 19.4471 14.6591Z" fill="white"/>
</g>
<defs>
<clipPath id="clip0_3346_18409">
<rect width="24" height="24" fill="white"/>
</clipPath>
</defs>
</svg>
