<svg width="64" height="89" viewBox="0 0 64 89" fill="none" xmlns="http://www.w3.org/2000/svg">
<path opacity="0.51" d="M1.2809 89V75.7045L32.3462 46.9403C34.9883 44.3835 37.2042 42.0824 38.994 40.0369C40.8121 37.9915 42.19 35.9886 43.1275 34.0284C44.065 32.0398 44.5337 29.8949 44.5337 27.5938C44.5337 25.0369 43.9514 22.8352 42.7866 20.9886C41.6218 19.1136 40.0309 17.679 38.0139 16.6847C35.9968 15.6619 33.7099 15.1506 31.1531 15.1506C28.4826 15.1506 26.1531 15.6903 24.1644 16.7699C22.1758 17.8494 20.6417 19.3977 19.5621 21.4148C18.4826 23.4318 17.9428 25.8324 17.9428 28.6165H0.428622C0.428622 22.9062 1.72124 17.9489 4.30646 13.7443C6.89169 9.53977 10.5138 6.28693 15.1729 3.98579C19.832 1.68466 25.2013 0.534088 31.2809 0.534088C37.5309 0.534088 42.9712 1.64204 47.6019 3.85795C52.261 6.04545 55.8832 9.08523 58.4684 12.9773C61.0536 16.8693 62.3462 21.3295 62.3462 26.358C62.3462 29.6534 61.6928 32.9062 60.386 36.1165C59.1076 39.3267 56.8207 42.892 53.5252 46.8125C50.2298 50.7045 45.5849 55.3778 39.5906 60.8324L26.8491 73.3182V73.9148H63.4968V89H1.2809Z" fill="url(#paint0_linear_3346_19078)"/>
<defs>
<linearGradient id="paint0_linear_3346_19078" x1="32" y1="-27" x2="32" y2="117" gradientUnits="userSpaceOnUse">
<stop stop-color="#58545E"/>
<stop offset="1" stop-color="white" stop-opacity="0"/>
</linearGradient>
</defs>
</svg>
