<svg width="68" height="91" viewBox="0 0 68 91" fill="none" xmlns="http://www.w3.org/2000/svg">
<path opacity="0.51" d="M33.7816 90.1932C27.418 90.1932 21.7504 89.0994 16.7788 86.9119C11.8356 84.696 7.92933 81.6562 5.06001 77.7926C2.21911 73.9006 0.756037 69.4119 0.67081 64.3267H19.2504C19.364 66.4574 20.06 68.3324 21.3384 69.9517C22.6452 71.5426 24.3782 72.7784 26.5373 73.6591C28.6964 74.5398 31.1254 74.9801 33.8242 74.9801C36.6367 74.9801 39.1225 74.483 41.2816 73.4886C43.4407 72.4943 45.131 71.1165 46.3526 69.3551C47.5742 67.5937 48.185 65.5625 48.185 63.2614C48.185 60.9318 47.5316 58.8722 46.2248 57.0824C44.9464 55.2642 43.0998 53.8437 40.685 52.821C38.2987 51.7983 35.4577 51.2869 32.1623 51.2869H24.0231V37.7358H32.1623C34.9464 37.7358 37.4038 37.2528 39.5344 36.2869C41.6935 35.321 43.3697 33.9858 44.5629 32.2812C45.756 30.5483 46.3526 28.5312 46.3526 26.2301C46.3526 24.0426 45.8271 22.125 44.7759 20.4773C43.7532 18.8011 42.3043 17.4943 40.4293 16.5568C38.5827 15.6193 36.4237 15.1506 33.9521 15.1506C31.4521 15.1506 29.1651 15.6051 27.0913 16.5142C25.0174 17.3949 23.3555 18.6591 22.1055 20.3068C20.8555 21.9545 20.1879 23.8864 20.1026 26.1023H2.41797C2.5032 21.0739 3.93786 16.642 6.72195 12.8068C9.50604 8.97159 13.256 5.97443 17.9719 3.81534C22.7163 1.62784 28.0714 0.534088 34.0373 0.534088C40.06 0.534088 45.3299 1.62784 49.8469 3.81534C54.364 6.00284 57.8725 8.95738 60.3725 12.679C62.9009 16.3722 64.1509 20.5199 64.1225 25.1222C64.1509 30.0085 62.631 34.0852 59.5629 37.3523C56.5231 40.6193 52.56 42.6932 47.6737 43.5739V44.2557C54.0941 45.0795 58.9805 47.3097 62.3327 50.946C65.7134 54.554 67.3896 59.071 67.3612 64.4972C67.3896 69.4688 65.9549 73.8864 63.0572 77.75C60.1879 81.6136 56.2248 84.6534 51.168 86.8693C46.1112 89.0852 40.3157 90.1932 33.7816 90.1932Z" fill="url(#paint0_linear_3346_19074)"/>
<defs>
<linearGradient id="paint0_linear_3346_19074" x1="34" y1="-27" x2="34" y2="117" gradientUnits="userSpaceOnUse">
<stop stop-color="#58545E"/>
<stop offset="1" stop-color="white" stop-opacity="0"/>
</linearGradient>
</defs>
</svg>
