<svg width="20" height="21" viewBox="0 0 20 21" fill="none" xmlns="http://www.w3.org/2000/svg">
<path d="M19.7556 18.7897L14.0682 13.1023C15.1699 11.7415 15.8332 10.0123 15.8332 8.129C15.8332 3.76405 12.2815 0.212402 7.91656 0.212402C3.55161 0.212402 0 3.76401 0 8.12897C0 12.4939 3.55165 16.0456 7.9166 16.0456C9.7999 16.0456 11.5291 15.3823 12.8899 14.2806L18.5773 19.968C18.7398 20.1305 18.9531 20.2122 19.1665 20.2122C19.3798 20.2122 19.5932 20.1305 19.7557 19.968C20.0815 19.6422 20.0815 19.1155 19.7556 18.7897ZM7.9166 14.3789C4.46996 14.3789 1.66666 11.5756 1.66666 8.12897C1.66666 4.68232 4.46996 1.87903 7.9166 1.87903C11.3632 1.87903 14.1665 4.68232 14.1665 8.12897C14.1665 11.5756 11.3632 14.3789 7.9166 14.3789Z" fill="#AAAAAA"/>
</svg>
