<svg width="1888" height="242" viewBox="0 0 1888 242" fill="none" xmlns="http://www.w3.org/2000/svg">
<g clip-path="url(#clip0_3346_19054)">
<rect width="1922" height="242" fill="#F8F9FA"/>
<g filter="url(#filter0_d_3346_19054)">
<path d="M1029.5 -207C1029.5 286.001 592.137 685.658 52.623 685.658C-486.891 685.658 -924.254 286.001 -924.254 -207C-924.254 -700.001 -486.891 -1099.66 52.623 -1099.66C592.137 -1099.66 1029.5 -700.001 1029.5 -207ZM-426.161 -207C-426.161 34.6282 -211.802 230.507 52.623 230.507C317.048 230.507 531.407 34.6282 531.407 -207C531.407 -448.628 317.048 -644.507 52.623 -644.507C-211.802 -644.507 -426.161 -448.628 -426.161 -207Z" fill="url(#paint0_linear_3346_19054)"/>
</g>
</g>
<defs>
<filter id="filter0_d_3346_19054" x="-1144.55" y="-1319.96" width="2394.35" height="2225.92" filterUnits="userSpaceOnUse" color-interpolation-filters="sRGB">
<feFlood flood-opacity="0" result="BackgroundImageFix"/>
<feColorMatrix in="SourceAlpha" type="matrix" values="0 0 0 0 0 0 0 0 0 0 0 0 0 0 0 0 0 0 127 0" result="hardAlpha"/>
<feMorphology radius="13" operator="dilate" in="SourceAlpha" result="effect1_dropShadow_3346_19054"/>
<feOffset/>
<feGaussianBlur stdDeviation="103.65"/>
<feComposite in2="hardAlpha" operator="out"/>
<feColorMatrix type="matrix" values="0 0 0 0 0.495833 0 0 0 0 0.495833 0 0 0 0 0.495833 0 0 0 0.25 0"/>
<feBlend mode="normal" in2="BackgroundImageFix" result="effect1_dropShadow_3346_19054"/>
<feBlend mode="normal" in="SourceGraphic" in2="effect1_dropShadow_3346_19054" result="shape"/>
</filter>
<linearGradient id="paint0_linear_3346_19054" x1="52.623" y1="-1099.66" x2="52.623" y2="685.658" gradientUnits="userSpaceOnUse">
<stop stop-color="#DCDCDC"/>
<stop offset="1" stop-color="#F8F9FA"/>
</linearGradient>
<clipPath id="clip0_3346_19054">
<rect width="1922" height="242" fill="white"/>
</clipPath>
</defs>
</svg>
