<svg width="16" height="20" viewBox="0 0 16 20" fill="none" xmlns="http://www.w3.org/2000/svg">
<path fill-rule="evenodd" clip-rule="evenodd" d="M11.7825 3.49783L8.4898 6.11811C8.39676 6.19217 8.27723 6.20553 8.17012 6.15389C8.06297 6.10225 7.99902 6.00041 7.99902 5.88147V4.51987C5.13129 4.51987 2.80652 6.84463 2.80652 9.71237C2.80652 11.056 3.31691 12.2805 4.15438 13.2025C4.24477 13.302 4.28547 13.4214 4.27465 13.5554C4.26383 13.6894 4.20453 13.8007 4.0993 13.8844L2.86121 14.8697C2.76721 14.9446 2.64802 14.9805 2.52828 14.97C2.40855 14.9595 2.29744 14.9034 2.21793 14.8132C1.01766 13.454 0.289062 11.6683 0.289062 9.7124C0.289062 5.45432 3.74094 2.00248 7.99898 2.00248V0.640881C7.99898 0.521935 8.06293 0.420099 8.17008 0.368459C8.27719 0.316818 8.39672 0.330138 8.48977 0.40424L11.7824 3.02451C11.857 3.08385 11.8965 3.16588 11.8965 3.26119C11.8965 3.35651 11.857 3.4385 11.7824 3.49787L11.7825 3.49783ZM11.8988 5.54033C11.7936 5.62404 11.7343 5.73533 11.7234 5.86936C11.7126 6.00338 11.7533 6.12276 11.8437 6.22229C12.6812 7.14424 13.1916 8.36873 13.1916 9.7124C13.1916 12.5801 10.8668 14.9049 7.99906 14.9049V13.5433C7.99906 13.4244 7.93512 13.3225 7.82797 13.2709C7.72086 13.2192 7.60133 13.2326 7.50828 13.3067L4.21562 15.9269C4.14105 15.9863 4.10152 16.0683 4.10152 16.1636C4.10152 16.2588 4.14109 16.3409 4.21562 16.4002L7.50828 19.0205C7.60133 19.0946 7.72086 19.108 7.82797 19.0563C7.93512 19.0046 7.99906 18.9028 7.99906 18.7838V17.4223C12.2571 17.4223 15.709 13.9705 15.709 9.71237C15.709 7.75643 14.9804 5.97076 13.7801 4.61154C13.7006 4.52142 13.5895 4.46529 13.4698 4.45478C13.3501 4.44427 13.2309 4.48017 13.1369 4.55506L11.8988 5.54033Z" fill="url(#paint0_linear_3346_21142)"/>
<defs>
<linearGradient id="paint0_linear_3346_21142" x1="2.55746" y1="15.154" x2="13.4407" y2="4.2708" gradientUnits="userSpaceOnUse">
<stop stop-color="#1751FF"/>
<stop offset="1" stop-color="#5CC5FF"/>
</linearGradient>
</defs>
</svg>
