<svg width="20" height="21" viewBox="0 0 20 21" fill="none" xmlns="http://www.w3.org/2000/svg">
<g clip-path="url(#clip0_3346_19807)">
<path fill-rule="evenodd" clip-rule="evenodd" d="M8.674 19.5492C3.89142 19.5492 0.00390625 15.6612 0.00390625 10.8791C0.00390625 6.09696 3.89142 2.20898 8.674 2.20898C11.0814 2.20898 13.326 3.16864 14.9856 4.92508C15.0215 4.96133 15.0433 5.00922 15.0471 5.06013C15.051 5.11103 15.0365 5.16163 15.0063 5.20282L15.5152 5.86812C15.6121 5.81829 15.7385 5.82891 15.8151 5.95025C16.8237 7.39757 17.3441 9.10603 17.3441 10.8786C17.3441 15.6612 13.4566 19.5492 8.674 19.5492ZM8.674 17.7595C4.88383 17.7595 1.79311 14.6688 1.79311 10.8791C1.79311 7.08937 4.88383 3.99772 8.674 3.99772C10.4794 3.99772 12.1873 4.69716 13.4723 5.94932C13.4938 5.96801 13.5114 5.99077 13.5241 6.0163C13.5367 6.04182 13.5442 6.06961 13.5461 6.09804C13.548 6.12648 13.5443 6.15501 13.5351 6.18198C13.5259 6.20896 13.5114 6.23385 13.4926 6.25521L14.1366 7.05477C14.2349 6.9971 14.371 7.00264 14.4485 7.12075C17.3727 11.5711 14.1994 17.7595 8.674 17.7595Z" fill="#737373"/>
<path fill-rule="evenodd" clip-rule="evenodd" d="M8.90227 15.3359C8.85647 15.3352 8.8119 15.321 8.7742 15.2949C8.73651 15.2689 8.70738 15.2323 8.6905 15.1897C8.67435 15.1574 7.27548 11.5458 5.1121 10.1792C4.68903 9.91897 4.36376 9.64261 4.49387 9.02437C4.62397 8.42274 5.03044 8.08086 5.76264 7.91846C7.06371 7.64164 8.46305 9.65876 8.98301 10.4883C10.8054 7.83726 14.4489 3.67292 19.7519 3.18479C20.0075 3.1548 20.1025 3.53405 19.8658 3.64016C19.7846 3.67246 12.2043 7.13736 9.12973 15.2058C9.10675 15.2457 9.07358 15.2788 9.03361 15.3017C8.99364 15.3245 8.94831 15.3364 8.90227 15.3359Z" fill="#008000"/>
</g>
<defs>
<clipPath id="clip0_3346_19807">
<rect width="20" height="20" fill="white" transform="translate(0 0.878906)"/>
</clipPath>
</defs>
</svg>
