<svg width="1531" height="427" viewBox="0 0 1531 427" fill="none" xmlns="http://www.w3.org/2000/svg">
<g filter="url(#filter0_d_3346_19064)">
<path d="M27.6953 182.939C52.5626 289.185 171.47 449.233 448.16 239.453C536.32 182.939 721.685 -27.2921 961.304 182.939C1153 351.125 1384.78 167.116 1476.71 54.0879" stroke="#DFDFDF" stroke-width="6" stroke-linecap="round"/>
</g>
<g filter="url(#filter1_d_3346_19064)">
<path d="M741.219 35.5L786.509 61.6484V113.945L741.219 140.094L695.928 113.945V61.6484L741.219 35.5Z" fill="white"/>
</g>
<g clip-path="url(#clip0_3346_19064)">
<path d="M730.165 77.4492L726.267 77.7504C725.182 77.8343 724.216 78.4028 723.616 79.3103L719.12 86.1105C718.665 86.7987 718.592 87.6599 718.926 88.4144C719.26 89.1688 719.946 89.6946 720.761 89.8209L724.331 90.3737C725.166 85.9423 727.165 81.5218 730.165 77.4492ZM738.642 104.685L739.195 108.254C739.321 109.07 739.847 109.756 740.601 110.089C740.909 110.226 741.241 110.297 741.578 110.297C742.05 110.296 742.512 110.157 742.905 109.896L749.706 105.4C750.613 104.8 751.182 103.833 751.265 102.749L751.566 98.8501C747.494 101.851 743.073 103.85 738.642 104.685ZM737.299 102.211C737.423 102.211 737.548 102.2 737.672 102.18C739.529 101.869 741.318 101.346 743.025 100.662L728.354 85.9904C727.669 87.6973 727.146 89.4867 726.836 91.3434C726.714 92.0752 726.959 92.8208 727.484 93.3455L735.67 101.532C736.106 101.967 736.694 102.211 737.299 102.211ZM760.131 85.2481C763.721 78.3071 763.854 70.9722 763.666 67.5322C763.602 66.3535 762.662 65.4137 761.483 65.3495C760.827 65.3141 760.169 65.2965 759.511 65.2968C755.665 65.2968 749.578 65.8795 743.767 68.885C739.149 71.2736 733.094 76.5331 729.522 83.4449C729.564 83.4778 729.605 83.5128 729.644 83.5517L745.464 99.3719C745.503 99.4107 745.538 99.4518 745.571 99.494C752.483 95.9214 757.742 89.866 760.131 85.2481ZM744.883 74.8101C747.453 72.2401 751.635 72.2398 754.205 74.8101C755.451 76.055 756.136 77.7104 756.136 79.4711C756.136 81.2318 755.451 82.8872 754.205 84.1322C752.921 85.4171 751.232 86.0596 749.544 86.0598C747.856 86.0599 746.169 85.4174 744.883 84.1322C743.638 82.8872 742.953 81.2318 742.953 79.4711C742.953 77.7104 743.638 76.055 744.883 74.8101Z" fill="#E45B5C"/>
<path d="M746.748 82.2678C748.29 83.8098 750.799 83.8099 752.341 82.2678C753.088 81.5207 753.499 80.5276 753.499 79.4711C753.499 78.4147 753.088 77.4216 752.341 76.6746C751.57 75.9035 750.557 75.518 749.544 75.518C748.531 75.518 747.519 75.9035 746.748 76.6746C746.001 77.4216 745.589 78.4147 745.589 79.4711C745.589 80.5276 746.001 81.5208 746.748 82.2678ZM720.064 102.381C720.401 102.381 720.738 102.252 720.996 101.995L725.3 97.6906C725.815 97.1758 725.815 96.3411 725.3 95.8262C724.785 95.3114 723.95 95.3114 723.436 95.8262L719.131 100.13C718.616 100.645 718.616 101.48 719.131 101.995C719.254 102.117 719.399 102.215 719.559 102.281C719.719 102.347 719.89 102.381 720.064 102.381ZM729.245 99.7708C728.73 99.256 727.895 99.256 727.38 99.7708L719.105 108.046C718.59 108.561 718.59 109.396 719.105 109.911C719.362 110.168 719.7 110.297 720.037 110.297C720.375 110.297 720.712 110.168 720.969 109.91L729.244 101.635C729.759 101.12 729.759 100.286 729.245 99.7708ZM731.325 103.715L727.021 108.02C726.506 108.535 726.506 109.369 727.021 109.884C727.278 110.141 727.615 110.27 727.953 110.27C728.29 110.27 728.628 110.142 728.885 109.884L733.189 105.58C733.704 105.065 733.704 104.23 733.189 103.715C732.674 103.201 731.84 103.201 731.325 103.715Z" fill="#E45B5C"/>
</g>
<g filter="url(#filter2_d_3346_19064)">
<path d="M273.219 272.841L318.509 298.989V351.286L273.219 377.435L227.928 351.286V298.989L273.219 272.841Z" fill="white"/>
</g>
<g clip-path="url(#clip1_3346_19064)">
<path d="M294.659 320.015L291.201 319.263C290.9 318.341 290.528 317.444 290.088 316.58L292.003 313.602C292.169 313.344 292.241 313.037 292.208 312.732C292.176 312.427 292.039 312.142 291.822 311.925L286.435 306.538C286.218 306.321 285.934 306.185 285.629 306.152C285.323 306.119 285.016 306.192 284.758 306.358L281.78 308.272C280.916 307.832 280.019 307.46 279.097 307.159L278.345 303.701C278.28 303.401 278.114 303.133 277.875 302.94C277.636 302.748 277.338 302.643 277.032 302.643H269.414C269.107 302.643 268.809 302.748 268.57 302.94C268.331 303.133 268.165 303.401 268.1 303.701L267.348 307.159C266.426 307.46 265.529 307.832 264.665 308.272L261.687 306.358C261.429 306.192 261.122 306.119 260.817 306.152C260.511 306.185 260.227 306.321 260.01 306.538L254.623 311.925C254.406 312.142 254.27 312.427 254.237 312.732C254.204 313.037 254.277 313.344 254.443 313.602L256.357 316.58C255.917 317.444 255.545 318.342 255.244 319.263L251.786 320.015C251.486 320.08 251.218 320.246 251.025 320.485C250.833 320.724 250.728 321.022 250.728 321.329V328.947C250.728 329.254 250.833 329.551 251.025 329.79C251.218 330.029 251.486 330.195 251.786 330.26L255.244 331.012C255.545 331.934 255.917 332.831 256.357 333.696L254.442 336.673C254.277 336.931 254.204 337.238 254.237 337.544C254.27 337.849 254.406 338.134 254.623 338.351L260.01 343.738C260.227 343.954 260.511 344.091 260.817 344.123C261.122 344.156 261.429 344.084 261.687 343.918L264.665 342.003C265.529 342.443 266.426 342.815 267.348 343.116L268.1 346.574C268.165 346.874 268.331 347.143 268.57 347.335C268.809 347.528 269.107 347.633 269.414 347.633H277.032C277.339 347.633 277.636 347.528 277.875 347.335C278.114 347.143 278.28 346.874 278.345 346.574L279.097 343.116C280.019 342.815 280.916 342.443 281.78 342.003L284.758 343.918C285.016 344.084 285.323 344.156 285.629 344.124C285.934 344.091 286.218 343.955 286.435 343.738L291.822 338.351C292.039 338.134 292.176 337.849 292.208 337.544C292.241 337.238 292.168 336.931 292.003 336.673L290.088 333.696C290.528 332.831 290.9 331.934 291.201 331.012L294.659 330.26C294.959 330.195 295.227 330.029 295.42 329.79C295.613 329.551 295.718 329.254 295.718 328.947V321.329C295.718 321.022 295.613 320.724 295.42 320.485C295.227 320.246 294.959 320.08 294.659 320.015ZM281.289 325.138C281.289 329.585 277.67 333.204 273.223 333.204C268.775 333.204 265.157 329.585 265.157 325.138C265.157 320.69 268.775 317.072 273.223 317.072C277.67 317.072 281.289 320.69 281.289 325.138Z" fill="#E45B5C"/>
</g>
<g filter="url(#filter3_d_3346_19064)">
<path d="M1165.22 198.044L1210.51 224.192V276.489L1165.22 302.638L1119.93 276.489V224.192L1165.22 198.044Z" fill="white"/>
</g>
<g clip-path="url(#clip2_3346_19064)">
<path d="M1161.27 248.935H1169.18V251.571H1161.27V248.935Z" fill="#E45B5C"/>
<path d="M1179.23 251.571H1171.81V252.89C1171.81 253.618 1171.22 254.208 1170.49 254.208H1159.95C1159.22 254.208 1158.63 253.618 1158.63 252.89V251.571H1151.21C1150.38 251.572 1149.57 251.311 1148.9 250.826C1148.22 250.34 1147.72 249.655 1147.46 248.868L1142.72 234.644V263.437C1142.72 265.617 1144.49 267.392 1146.67 267.392H1183.76C1185.94 267.392 1187.72 265.617 1187.72 263.437V234.645L1182.98 248.868C1182.72 249.655 1182.21 250.34 1181.54 250.826C1180.87 251.311 1180.06 251.572 1179.23 251.571H1179.23Z" fill="#E45B5C"/>
<path d="M1170.49 227.841H1159.95C1157.77 227.841 1155.99 229.615 1155.99 231.796V233.114H1144.99L1149.96 248.033C1150.05 248.296 1150.22 248.524 1150.44 248.686C1150.67 248.848 1150.94 248.935 1151.21 248.935H1158.63V247.616C1158.63 246.888 1159.22 246.298 1159.95 246.298H1170.49C1171.22 246.298 1171.81 246.888 1171.81 247.616V248.935H1179.23C1179.8 248.935 1180.3 248.573 1180.48 248.033L1185.45 233.114H1174.45V231.796C1174.45 229.615 1172.67 227.841 1170.49 227.841ZM1158.63 233.114V231.796C1158.63 231.068 1159.22 230.478 1159.95 230.478H1170.49C1171.22 230.478 1171.81 231.068 1171.81 231.796V233.114H1158.63Z" fill="#E45B5C"/>
</g>
<defs>
<filter id="filter0_d_3346_19064" x="0.0948238" y="51.0878" width="1504.22" height="358.517" filterUnits="userSpaceOnUse" color-interpolation-filters="sRGB">
<feFlood flood-opacity="0" result="BackgroundImageFix"/>
<feColorMatrix in="SourceAlpha" type="matrix" values="0 0 0 0 0 0 0 0 0 0 0 0 0 0 0 0 0 0 127 0" result="hardAlpha"/>
<feOffset dy="40"/>
<feGaussianBlur stdDeviation="12.3"/>
<feComposite in2="hardAlpha" operator="out"/>
<feColorMatrix type="matrix" values="0 0 0 0 0 0 0 0 0 0 0 0 0 0 0 0 0 0 0.03 0"/>
<feBlend mode="normal" in2="BackgroundImageFix" result="effect1_dropShadow_3346_19064"/>
<feBlend mode="normal" in="SourceGraphic" in2="effect1_dropShadow_3346_19064" result="shape"/>
</filter>
<filter id="filter1_d_3346_19064" x="653.707" y="0.200087" width="175.024" height="189.037" filterUnits="userSpaceOnUse" color-interpolation-filters="sRGB">
<feFlood flood-opacity="0" result="BackgroundImageFix"/>
<feColorMatrix in="SourceAlpha" type="matrix" values="0 0 0 0 0 0 0 0 0 0 0 0 0 0 0 0 0 0 127 0" result="hardAlpha"/>
<feOffset dy="6.92155"/>
<feGaussianBlur stdDeviation="21.1107"/>
<feComposite in2="hardAlpha" operator="out"/>
<feColorMatrix type="matrix" values="0 0 0 0 0 0 0 0 0 0 0 0 0 0 0 0 0 0 0.13 0"/>
<feBlend mode="normal" in2="BackgroundImageFix" result="effect1_dropShadow_3346_19064"/>
<feBlend mode="normal" in="SourceGraphic" in2="effect1_dropShadow_3346_19064" result="shape"/>
</filter>
<filter id="filter2_d_3346_19064" x="185.707" y="237.541" width="175.024" height="189.037" filterUnits="userSpaceOnUse" color-interpolation-filters="sRGB">
<feFlood flood-opacity="0" result="BackgroundImageFix"/>
<feColorMatrix in="SourceAlpha" type="matrix" values="0 0 0 0 0 0 0 0 0 0 0 0 0 0 0 0 0 0 127 0" result="hardAlpha"/>
<feOffset dy="6.92155"/>
<feGaussianBlur stdDeviation="21.1107"/>
<feComposite in2="hardAlpha" operator="out"/>
<feColorMatrix type="matrix" values="0 0 0 0 0 0 0 0 0 0 0 0 0 0 0 0 0 0 0.13 0"/>
<feBlend mode="normal" in2="BackgroundImageFix" result="effect1_dropShadow_3346_19064"/>
<feBlend mode="normal" in="SourceGraphic" in2="effect1_dropShadow_3346_19064" result="shape"/>
</filter>
<filter id="filter3_d_3346_19064" x="1077.71" y="162.744" width="175.024" height="189.037" filterUnits="userSpaceOnUse" color-interpolation-filters="sRGB">
<feFlood flood-opacity="0" result="BackgroundImageFix"/>
<feColorMatrix in="SourceAlpha" type="matrix" values="0 0 0 0 0 0 0 0 0 0 0 0 0 0 0 0 0 0 127 0" result="hardAlpha"/>
<feOffset dy="6.92155"/>
<feGaussianBlur stdDeviation="21.1107"/>
<feComposite in2="hardAlpha" operator="out"/>
<feColorMatrix type="matrix" values="0 0 0 0 0 0 0 0 0 0 0 0 0 0 0 0 0 0 0.13 0"/>
<feBlend mode="normal" in2="BackgroundImageFix" result="effect1_dropShadow_3346_19064"/>
<feBlend mode="normal" in="SourceGraphic" in2="effect1_dropShadow_3346_19064" result="shape"/>
</filter>
<clipPath id="clip0_3346_19064">
<rect width="45" height="45" fill="white" transform="translate(718.719 65.2968)"/>
</clipPath>
<clipPath id="clip1_3346_19064">
<rect width="44.99" height="44.99" fill="white" transform="translate(250.724 302.643)"/>
</clipPath>
<clipPath id="clip2_3346_19064">
<rect width="45" height="45" fill="white" transform="translate(1142.72 227.841)"/>
</clipPath>
</defs>
</svg>
