<svg width="40" height="40" viewBox="0 0 40 40" fill="none" xmlns="http://www.w3.org/2000/svg">
<g clip-path="url(#clip0_3370_18532)">
<path d="M38.75 24.9999C38.4184 24.9999 38.1005 24.8682 37.8661 24.6338C37.6317 24.3994 37.5 24.0815 37.5 23.7499C37.4973 21.4301 36.5746 19.206 34.9342 17.5657C33.2939 15.9253 31.0698 15.0026 28.75 14.9999H16.6666V20.4166C16.6666 21.5166 15.345 22.0733 14.5533 21.3199L5.38663 12.5699C5.2644 12.4534 5.16711 12.3132 5.10063 12.1579C5.03415 12.0027 4.99988 11.8355 4.99988 11.6666C4.99988 11.4977 5.03415 11.3306 5.10063 11.1753C5.16711 11.02 5.2644 10.8798 5.38663 10.7633L14.5533 2.01327C14.7303 1.84425 14.953 1.73089 15.1938 1.68726C15.4346 1.64363 15.6829 1.67165 15.9079 1.76784C16.133 1.86403 16.3248 2.02415 16.4597 2.22836C16.5945 2.43257 16.6665 2.67188 16.6666 2.9166V8.33327H27.0833C34.205 8.33327 40 14.1283 40 21.2499V23.7499C40 24.0815 39.8683 24.3994 39.6338 24.6338C39.3994 24.8682 39.0815 24.9999 38.75 24.9999Z" fill="#2196F3"/>
<path d="M35.735 11.6665H5C5 12.0082 5.14 12.3348 5.38667 12.5698L14.5533 21.3198C14.7303 21.4889 14.953 21.6022 15.1938 21.6458C15.4346 21.6895 15.6829 21.6615 15.908 21.5653C16.133 21.4691 16.3248 21.309 16.4597 21.1047C16.5946 20.9005 16.6665 20.6612 16.6667 20.4165V14.9998H28.75C31.0698 15.0025 33.2939 15.9252 34.9343 17.5656C36.5746 19.2059 37.4974 21.43 37.5 23.7498C37.5 24.0814 37.6317 24.3993 37.8661 24.6337C38.1005 24.8681 38.4185 24.9998 38.75 24.9998C39.0815 24.9998 39.3995 24.8681 39.6339 24.6337C39.8683 24.3993 40 24.0814 40 23.7498V21.2498C40.001 19.4427 39.6218 17.6555 38.887 16.0045C38.1522 14.3534 37.0783 12.8754 35.735 11.6665Z" fill="#1D83D4"/>
<path d="M23.3333 37.0833V31.6667H12.9167C5.795 31.6667 0 25.8717 0 18.75V16.25C0 15.9185 0.131696 15.6005 0.366117 15.3661C0.600537 15.1317 0.918479 15 1.25 15C1.58152 15 1.89946 15.1317 2.13388 15.3661C2.3683 15.6005 2.5 15.9185 2.5 16.25C2.50265 18.5698 3.42537 20.7939 5.06574 22.4343C6.70611 24.0746 8.93017 24.9974 11.25 25H23.3333V19.5833C23.3335 19.3386 23.4054 19.0993 23.5403 18.8951C23.6752 18.6909 23.867 18.5308 24.092 18.4346C24.3171 18.3384 24.5654 18.3104 24.8062 18.354C25.047 18.3976 25.2697 18.511 25.4467 18.68L34.6133 27.43C34.7356 27.5466 34.8329 27.6867 34.8993 27.842C34.9658 27.9973 35.0001 28.1644 35.0001 28.3333C35.0001 28.5022 34.9658 28.6694 34.8993 28.8247C34.8329 28.9799 34.7356 29.1201 34.6133 29.2367L25.4467 37.9867C25.2697 38.1557 25.047 38.2691 24.8062 38.3127C24.5654 38.3563 24.3171 38.3283 24.092 38.2321C23.867 38.1359 23.6752 37.9758 23.5403 37.7716C23.4054 37.5674 23.3335 37.3281 23.3333 37.0833Z" fill="#2196F3"/>
<path d="M35 28.3333H4.26501C6.6342 30.4813 9.71867 31.6697 12.9167 31.6666H23.3333V37.0833C23.3335 37.328 23.4054 37.5673 23.5403 37.7715C23.6752 37.9757 23.867 38.1358 24.092 38.232C24.3171 38.3282 24.5654 38.3562 24.8062 38.3126C25.047 38.269 25.2697 38.1556 25.4467 37.9866L34.6133 29.2366C34.7356 29.12 34.8328 28.9798 34.8993 28.8246C34.9658 28.6693 35 28.5021 35 28.3333Z" fill="#1D83D4"/>
</g>
<defs>
<clipPath id="clip0_3370_18532">
<rect width="40" height="40" fill="white"/>
</clipPath>
</defs>
</svg>
