<svg width="40" height="40" viewBox="0 0 40 40" fill="none" xmlns="http://www.w3.org/2000/svg">
<g clip-path="url(#clip0_3370_18539)">
<path d="M20 40C31.0457 40 40 31.0457 40 20C40 8.9543 31.0457 0 20 0C8.9543 0 0 8.9543 0 20C0 31.0457 8.9543 40 20 40Z" fill="#7584F2"/>
<path d="M21.6455 39.9333C31.1393 39.1602 38.7575 31.7567 39.8622 22.3605L33.5204 16.0187L33.0015 16.5774L26.7511 10.3269L6.77686 25.1024L21.6455 39.9333Z" fill="#4253CE"/>
<path d="M28.7048 26.9236C32.3034 26.9236 35.2206 24.0063 35.2206 20.4078C35.2206 16.8092 32.3033 13.892 28.7048 13.892H28.7039C27.638 10.0874 24.1449 7.29736 20 7.29736C15.8552 7.29736 12.3621 10.0874 11.2962 13.892H11.2953C7.69668 13.892 4.77942 16.8092 4.77942 20.4078C4.77942 24.0063 7.69668 26.9236 11.2953 26.9236H28.7048Z" fill="white"/>
<path d="M28.7047 13.892H28.7038C27.6379 10.0874 24.1448 7.29736 20 7.29736C19.9907 7.29736 19.9815 7.29791 19.9722 7.29791V26.9235H28.7047C32.3033 26.9235 35.2205 24.0063 35.2205 20.4078C35.2205 16.8092 32.3033 13.892 28.7047 13.892Z" fill="#E9EDF5"/>
<path d="M30.0491 23.2376L28.4524 24.8352V24.4708C28.4524 19.8102 24.6607 16.0186 19.9723 16.0186V18.3623C23.3684 18.3623 26.1086 21.1025 26.1086 24.4708V24.8356L24.5127 23.24L22.8556 24.8975L27.2813 29.3222L31.7067 24.8944L30.0491 23.2376Z" fill="#19CFFC"/>
<path d="M13.8915 24.4709V24.2286L15.4889 25.8256L17.146 24.1681L12.7203 19.7434L8.2948 24.1711L9.95253 25.828L11.5478 24.2319V24.4708C11.5478 29.1315 15.3395 32.9231 20 32.9231V30.5793C16.6318 30.5794 13.8915 27.8392 13.8915 24.4709Z" fill="#96E8FF"/>
</g>
<defs>
<clipPath id="clip0_3370_18539">
<rect width="40" height="40" fill="white"/>
</clipPath>
</defs>
</svg>
