<svg width="32" height="33" viewBox="0 0 32 33" fill="none" xmlns="http://www.w3.org/2000/svg">
<path d="M28.5 16.7129C28.5 18.9071 27.9224 21.0627 26.8253 22.9629L16 16.7129H28.5Z" fill="#F45542"/>
<path d="M26.8246 22.9641C25.7273 24.8643 24.1491 26.442 22.2488 27.5389L16 16.7129L26.8246 22.9641Z" fill="#DD3242"/>
<path d="M22.2502 27.5389C20.3498 28.6358 18.1942 29.2131 16 29.2129L16.0013 16.7129L22.2502 27.5389Z" fill="#AF2F79"/>
<path d="M3.5 16.7129C3.49999 18.9071 4.07757 21.0627 5.17469 22.9629L16 16.7129H3.5Z" fill="#2656AB"/>
<path d="M5.17578 22.9641C6.27309 24.8643 7.85125 26.442 9.75163 27.5389L16.0004 16.7129L5.17578 22.9641Z" fill="#7943A3"/>
<path d="M9.75 27.5389C11.6504 28.6358 13.806 29.2131 16.0002 29.2129L15.9988 16.7129L9.75 27.5389Z" fill="#A23CA2"/>
<path d="M3.5 16.7129C3.49999 14.5187 4.07757 12.3631 5.17469 10.4629L16 16.7129H3.5Z" fill="#019A85"/>
<path d="M5.17578 10.4615C6.27309 8.56138 7.85125 6.98359 9.75163 5.88672L16.0004 16.7127L5.17578 10.4615Z" fill="#01AE5C"/>
<path d="M9.75 5.88692C11.6504 4.79002 13.806 4.21267 16.0002 4.21289L15.9988 16.7129L9.75 5.88692Z" fill="#A1CF49"/>
<path d="M28.5 16.7129C28.5 14.5187 27.9224 12.3631 26.8253 10.4629L16 16.7129H28.5Z" fill="#F97827"/>
<path d="M26.8246 10.4617C25.7273 8.56162 24.1491 6.98383 22.2488 5.88696L16 16.713L26.8246 10.4617Z" fill="#FCA313"/>
<path d="M22.2502 5.88692C20.3498 4.79002 18.1942 4.21267 16 4.21289L16.0013 16.7129L22.2502 5.88692Z" fill="#FFE503"/>
</svg>
