<svg width="40" height="40" viewBox="0 0 40 40" fill="none" xmlns="http://www.w3.org/2000/svg">
<path d="M34.4127 16.2078V34.9761C34.4127 36.6681 33.141 38.1519 31.4527 38.2681C31.0165 38.2995 30.5784 38.2405 30.166 38.0949C29.7536 37.9492 29.3756 37.7201 29.0558 37.4217C28.736 37.1233 28.4812 36.7622 28.3073 36.3609C28.1334 35.9595 28.0442 35.5267 28.0452 35.0893V14.5051H32.7093C33.161 14.5051 33.5941 14.6845 33.9135 15.0038C34.233 15.3231 34.4125 15.7561 34.4127 16.2078Z" fill="#FD982E"/>
<path d="M30.2678 3.03704V29.4295C30.2678 30.154 29.6806 30.7404 28.9568 30.7404H5.10928C4.38475 30.7404 3.79834 30.1533 3.79834 29.4287V3.03629C3.79834 2.31251 4.38551 1.72534 5.10928 1.72534H28.9561C29.6806 1.72534 30.2678 2.31251 30.2678 3.03704Z" fill="#DEDDFF"/>
<path d="M7.123 30.7427H5.10791C4.38338 30.7427 3.80225 30.1541 3.80225 29.4295V3.03708C3.80225 2.31256 4.38338 1.72388 5.10791 1.72388H7.123C6.39847 1.72388 5.80979 2.31256 5.80979 3.03708V29.4295C5.80979 30.1541 6.39847 30.7427 7.123 30.7427Z" fill="#C6C6F7"/>
<path d="M31.2256 38.2763H5.06711C4.64883 38.2765 4.23462 38.1941 3.84822 38.034C3.46183 37.8738 3.11084 37.6389 2.81539 37.3428C2.51994 37.0467 2.28582 36.6953 2.12646 36.3085C1.9671 35.9218 1.88564 35.5074 1.88673 35.0891V17.1276C1.88673 16.4031 2.4739 15.8159 3.19843 15.8159H12.5403C12.9403 15.8159 13.3177 15.9986 13.5667 16.311L15.2641 18.4431C15.5131 18.7555 15.8905 18.9374 16.2905 18.9374H26.7335C27.458 18.9374 28.0452 19.5246 28.0452 20.2491V35.0891C28.0441 35.5074 28.1256 35.9218 28.285 36.3085C28.4443 36.6953 28.6784 37.0467 28.9739 37.3428C29.2693 37.6389 29.6203 37.8738 30.0067 38.034C30.3931 38.1941 30.8073 38.2765 31.2256 38.2763Z" fill="#FCB73E"/>
<path d="M8.22857 38.2763H5.06933C4.65109 38.2768 4.23685 38.1948 3.85038 38.035C3.46391 37.8751 3.11282 37.6404 2.81726 37.3445C2.52169 37.0486 2.28748 36.6972 2.12804 36.3106C1.96861 35.9239 1.8871 35.5096 1.88819 35.0913V17.1291C1.88819 16.4046 2.47536 15.8174 3.19989 15.8174H6.35914C5.63536 15.8174 5.04744 16.4046 5.04744 17.1291V35.0913C5.04744 36.8649 6.47612 38.2763 8.22857 38.2763Z" fill="#FD982E"/>
<path d="M38.1132 28.9722V36.6945C38.1132 37.1139 37.9466 37.516 37.6501 37.8125C37.3536 38.1091 36.9514 38.2756 36.5321 38.2756H26.7132C26.294 38.2754 25.892 38.1088 25.5956 37.8123C25.2993 37.5158 25.1328 37.1137 25.1328 36.6945V28.9722C25.1328 28.099 25.8407 27.3911 26.7139 27.3911H36.5321C37.4053 27.3911 38.1132 28.099 38.1132 28.9722Z" fill="#65B9FF"/>
<path d="M29.6332 38.2764H26.7132C26.5056 38.2765 26.2999 38.2357 26.1081 38.1562C25.9163 38.0768 25.742 37.9603 25.5952 37.8135C25.4484 37.6666 25.332 37.4923 25.2527 37.3004C25.1734 37.1085 25.1326 36.9029 25.1328 36.6953V28.9715C25.1328 28.0975 25.8392 27.3911 26.7132 27.3911H29.6332C29.4256 27.3909 29.2199 27.4317 29.0281 27.511C28.8362 27.5903 28.6618 27.7067 28.515 27.8535C28.3681 28.0003 28.2517 28.1746 28.1722 28.3664C28.0928 28.5582 28.052 28.7639 28.0521 28.9715V36.6953C28.0521 37.57 28.7592 38.2764 29.6332 38.2764Z" fill="#3E7FFF"/>
<path d="M36.4702 27.391H34.9208V25.0114C34.9208 23.1925 33.4416 21.7133 31.6227 21.7133C29.8046 21.7133 28.3246 23.1925 28.3246 25.0114V27.3902H26.7751V25.0114C26.7765 23.726 27.2878 22.4937 28.1968 21.5849C29.1057 20.6761 30.3381 20.165 31.6234 20.1638C32.9085 20.1654 34.1405 20.6767 35.0492 21.5854C35.9578 22.4942 36.4688 23.7263 36.4702 25.0114V27.391Z" fill="#5B5E8B"/>
<path d="M33.0793 20.3866C32.2464 20.6557 31.5 21.1412 30.9163 21.7934C30.1825 21.9542 29.5256 22.3608 29.0544 22.9459C28.5832 23.531 28.326 24.2595 28.3253 25.0107V27.3911H26.7751V25.0107C26.7765 24.2498 26.9567 23.4998 27.3012 22.8213C27.6457 22.1428 28.145 21.5548 28.7586 21.1047C29.3722 20.6547 30.083 20.3552 30.8337 20.2305C31.5844 20.1057 32.3531 20.1592 33.0793 20.3866ZM33.0687 31.7738C33.0695 32.016 33.0088 32.2546 32.8924 32.467C32.776 32.6795 32.6076 32.859 32.4031 32.9889V34.6704C32.4031 35.1021 32.0514 35.4462 31.6265 35.4462H31.6189C31.4132 35.446 31.216 35.3642 31.0705 35.2188C30.9251 35.0733 30.8433 34.8761 30.8431 34.6704V32.9821C30.638 32.8545 30.4691 32.6763 30.3525 32.4648C30.236 32.2532 30.1757 32.0153 30.1774 31.7738C30.1774 30.976 30.8287 30.3247 31.6265 30.3247C32.425 30.3247 33.0687 30.976 33.0687 31.7738Z" fill="#312E4B"/>
<path d="M26.9917 6.51791C26.9918 6.58339 26.979 6.64824 26.954 6.70876C26.929 6.76928 26.8923 6.82428 26.8461 6.87062C26.7998 6.91695 26.7449 6.95371 26.6844 6.97879C26.6239 7.00387 26.5591 7.01678 26.4936 7.01678H8.20981C8.0775 7.01678 7.95061 6.96422 7.85705 6.87066C7.7635 6.77711 7.71094 6.65022 7.71094 6.51791C7.71094 6.3856 7.7635 6.25871 7.85705 6.16516C7.95061 6.0716 8.0775 6.01904 8.20981 6.01904H26.4921C26.5575 6.01904 26.6224 6.03195 26.6829 6.05703C26.7433 6.08211 26.7983 6.11887 26.8446 6.1652C26.8908 6.21154 26.9275 6.26654 26.9525 6.32706C26.9775 6.38758 26.9903 6.45243 26.9902 6.51791H26.9917Z" fill="#C6C6F7"/>
<path d="M11.0708 7.01602H8.2104C8.0782 7.01602 7.9514 6.9635 7.85792 6.87002C7.76443 6.77653 7.71191 6.64974 7.71191 6.51753C7.71191 6.38533 7.76443 6.25853 7.85792 6.16505C7.9514 6.07156 8.0782 6.01904 8.2104 6.01904H11.0708C10.9386 6.01904 10.8118 6.07156 10.7183 6.16505C10.6248 6.25853 10.5723 6.38533 10.5723 6.51753C10.5723 6.64974 10.6248 6.77653 10.7183 6.87002C10.8118 6.9635 10.9386 7.01602 11.0708 7.01602Z" fill="#B5B5EA"/>
<path d="M27.0951 8.87023C27.0951 9.00234 27.0426 9.12903 26.9492 9.22245C26.8558 9.31586 26.7291 9.36834 26.597 9.36834H8.20981C8.0775 9.36834 7.95061 9.31578 7.85705 9.22223C7.7635 9.12867 7.71094 9.00178 7.71094 8.86947C7.71094 8.73717 7.7635 8.61028 7.85705 8.51672C7.95061 8.42317 8.0775 8.37061 8.20981 8.37061H26.5962C26.6618 8.37051 26.7268 8.38337 26.7874 8.40845C26.848 8.43353 26.9031 8.47034 26.9495 8.51677C26.9958 8.56319 27.0325 8.61831 27.0575 8.67897C27.0825 8.73963 27.0953 8.80463 27.0951 8.87023Z" fill="#C6C6F7"/>
<path d="M11.0709 9.36834H8.21054C8.07823 9.36834 7.95134 9.31578 7.85778 9.22223C7.76423 9.12867 7.71167 9.00178 7.71167 8.86947C7.71167 8.73717 7.76423 8.61028 7.85778 8.51672C7.95134 8.42316 8.07823 8.37061 8.21054 8.37061H11.0709C10.9386 8.37061 10.8117 8.42316 10.7182 8.51672C10.6246 8.61028 10.572 8.73717 10.572 8.86947C10.572 9.00178 10.6246 9.12867 10.7182 9.22223C10.8117 9.31578 10.9386 9.36834 11.0709 9.36834Z" fill="#B5B5EA"/>
<path d="M27.0951 11.2228C27.0951 11.3549 27.0426 11.4816 26.9492 11.575C26.8558 11.6684 26.7291 11.7209 26.597 11.7209H8.20981C8.0775 11.7209 7.95061 11.6683 7.85705 11.5748C7.7635 11.4812 7.71094 11.3543 7.71094 11.222C7.71094 11.0897 7.7635 10.9628 7.85705 10.8693C7.95061 10.7757 8.0775 10.7231 8.20981 10.7231H26.5962C26.6618 10.723 26.7268 10.7359 26.7874 10.761C26.848 10.7861 26.9031 10.8229 26.9495 10.8693C26.9958 10.9157 27.0325 10.9709 27.0575 11.0315C27.0825 11.0922 27.0953 11.1572 27.0951 11.2228Z" fill="#C6C6F7"/>
<path d="M11.0709 11.7209H8.21054C8.07823 11.7209 7.95134 11.6683 7.85778 11.5748C7.76423 11.4812 7.71167 11.3543 7.71167 11.222C7.71167 11.0897 7.76423 10.9628 7.85778 10.8693C7.95134 10.7757 8.07823 10.7231 8.21054 10.7231H11.0709C10.9386 10.7231 10.8117 10.7757 10.7182 10.8693C10.6246 10.9628 10.572 11.0897 10.572 11.222C10.572 11.3543 10.6246 11.4812 10.7182 11.5748C10.8117 11.6683 10.9386 11.7209 11.0709 11.7209Z" fill="#B5B5EA"/>
<path d="M21.7064 13.5753C21.7064 13.7074 21.6539 13.8341 21.5605 13.9275C21.4671 14.0209 21.3404 14.0734 21.2083 14.0734H8.21054C8.07823 14.0734 7.95134 14.0209 7.85778 13.9273C7.76423 13.8337 7.71167 13.7069 7.71167 13.5746C7.71167 13.4422 7.76423 13.3154 7.85778 13.2218C7.95134 13.1282 8.07823 13.0757 8.21054 13.0757H21.2075C21.2731 13.0757 21.338 13.0886 21.3985 13.1137C21.459 13.1389 21.514 13.1757 21.5603 13.2221C21.6065 13.2685 21.6432 13.3236 21.6681 13.3842C21.6931 13.4448 21.7066 13.5098 21.7064 13.5753Z" fill="#C6C6F7"/>
<path d="M11.0709 14.0734H8.21054C8.07823 14.0734 7.95134 14.0209 7.85778 13.9273C7.76423 13.8337 7.71167 13.7069 7.71167 13.5746C7.71167 13.4422 7.76423 13.3154 7.85778 13.2218C7.95134 13.1282 8.07823 13.0757 8.21054 13.0757H11.0709C10.9386 13.0757 10.8117 13.1282 10.7182 13.2218C10.6246 13.3154 10.572 13.4422 10.572 13.5746C10.572 13.7069 10.6246 13.8337 10.7182 13.9273C10.8117 14.0209 10.9386 14.0734 11.0709 14.0734Z" fill="#B5B5EA"/>
<path d="M27.0951 13.5753C27.0951 13.7074 27.0426 13.8341 26.9492 13.9275C26.8558 14.0209 26.7291 14.0734 26.597 14.0734H23.5985C23.4662 14.0734 23.3393 14.0209 23.2457 13.9273C23.1522 13.8337 23.0996 13.7069 23.0996 13.5746C23.0996 13.4422 23.1522 13.3154 23.2457 13.2218C23.3393 13.1282 23.4662 13.0757 23.5985 13.0757H26.5962C26.6618 13.0756 26.7268 13.0884 26.7874 13.1135C26.848 13.1386 26.9031 13.1754 26.9495 13.2218C26.9958 13.2683 27.0325 13.3234 27.0575 13.384C27.0825 13.4447 27.0953 13.5097 27.0951 13.5753Z" fill="#C6C6F7"/>
<path d="M25.2739 14.0709H23.5985C23.4663 14.0709 23.3397 14.0185 23.2462 13.925C23.1528 13.8316 23.1003 13.7049 23.1003 13.5728C23.1003 13.4407 23.1528 13.314 23.2462 13.2206C23.3397 13.1272 23.4663 13.0747 23.5985 13.0747H25.2739C25.1418 13.0747 25.0151 13.1272 24.9217 13.2206C24.8283 13.314 24.7758 13.4407 24.7758 13.5728C24.7758 13.7049 24.8283 13.8316 24.9217 13.925C25.0151 14.0185 25.1418 14.0709 25.2739 14.0709Z" fill="#B5B5EA"/>
</svg>
