<svg width="24" height="25" viewBox="0 0 24 25" fill="none" xmlns="http://www.w3.org/2000/svg">
<g clip-path="url(#clip0_3360_17672)">
<path d="M21 0.378906H3C1.3455 0.378906 0 1.72441 0 3.37891V21.3789C0 23.0334 1.3455 24.3789 3 24.3789H21C22.6545 24.3789 24 23.0334 24 21.3789V3.37891C24 1.72441 22.6545 0.378906 21 0.378906Z" fill="#1976D2"/>
<path d="M20.25 12.3789H16.5V9.37891C16.5 8.55091 17.172 8.62891 18 8.62891H19.5V4.87891H16.5C14.0145 4.87891 12 6.89341 12 9.37891V12.3789H9V16.1289H12V24.3789H16.5V16.1289H18.75L20.25 12.3789Z" fill="#FAFAFA"/>
</g>
<defs>
<clipPath id="clip0_3360_17672">
<rect width="24" height="24" fill="white" transform="translate(0 0.378906)"/>
</clipPath>
</defs>
</svg>
