<svg width="40" height="40" viewBox="0 0 40 40" fill="none" xmlns="http://www.w3.org/2000/svg">
<g clip-path="url(#clip0_3369_18377)">
<path d="M20 40C31.0457 40 40 31.0457 40 20C40 8.9543 31.0457 0 20 0C8.9543 0 0 8.9543 0 20C0 31.0457 8.9543 40 20 40Z" fill="#4A7AFF"/>
<path d="M40 19.9998C40 19.6413 39.9901 19.2851 39.9715 18.9313L29.9872 8.94702L26.2691 9.03765L30.153 12.9216L29.0097 14.065L25.0876 10.143L7.68546 22.0791L10.1155 24.5091L7.66772 27.9573L10.6102 30.8999L10.1791 31.2244L18.9257 39.9709C19.2815 39.9898 19.6395 39.9998 20 39.9998C31.0457 39.9998 40 31.0455 40 19.9998Z" fill="#2864F0"/>
<path d="M25.0876 21.6124H7.44714V8.01196H12.7803L15.1307 10.1431H25.0876V21.6124Z" fill="white"/>
<path d="M16.3391 10.1431H25.0875V21.6126H16.3391V10.1431Z" fill="#F2F6FC"/>
<path d="M23.3395 22.6599H9.1932C7.95578 22.6599 6.95109 21.6597 6.94547 20.4223L6.91406 13.5025H14.3759L16.8776 11.1907H25.6207L25.5873 20.4203C25.5827 21.6585 24.5777 22.6599 23.3395 22.6599Z" fill="#FFD400"/>
<path d="M16.8776 11.1907L16.3394 11.6881V22.6599H23.3395C24.5777 22.6599 25.5828 21.6585 25.5872 20.4203L25.6207 11.1907H16.8776Z" fill="#FFB000"/>
<path d="M33.2612 29.7859H15.6207V16.1855H20.9539L23.3043 18.3166H33.2612V29.7859Z" fill="white"/>
<path d="M24.4773 18.3164H33.2617V29.7859H24.4773V18.3164Z" fill="#F2F6FC"/>
<path d="M31.5132 30.8335H17.3669C16.1295 30.8335 15.1248 29.8333 15.1192 28.5959L15.0878 21.6761H22.5496L25.0513 19.3643H33.7944L33.761 28.5939C33.7564 29.8321 32.7514 30.8335 31.5132 30.8335Z" fill="#FCAF03"/>
<path d="M25.0512 19.3643L24.4773 19.8946V30.8336H31.5132C32.7514 30.8336 33.7564 29.8321 33.7609 28.5939L33.7943 19.3643L25.0512 19.3643Z" fill="#FFA300"/>
<path d="M32.3323 12.0423L31.337 13.0376V12.3869C31.337 9.59236 29.0635 7.31885 26.2689 7.31885V9.0376C28.1157 9.0376 29.6182 10.54 29.6182 12.3869V13.0378L28.6228 12.0423L27.4074 13.2577L30.4775 16.3277L33.5476 13.2577L32.3323 12.0423Z" fill="#B4F5F0"/>
<path d="M10.3818 27.6129V26.962L11.3772 27.9575L12.5925 26.7421L9.52247 23.6721L6.45239 26.7421L7.66778 27.9575L8.6631 26.9622V27.6129C8.6631 30.4074 10.9366 32.6809 13.7311 32.6809V30.9622C11.8842 30.9622 10.3818 29.4597 10.3818 27.6129Z" fill="#CBF7F7"/>
</g>
<defs>
<clipPath id="clip0_3369_18377">
<rect width="40" height="40" fill="white"/>
</clipPath>
</defs>
</svg>
