<svg width="24" height="25" viewBox="0 0 24 25" fill="none" xmlns="http://www.w3.org/2000/svg">
<g clip-path="url(#clip0_3360_17662)">
<path d="M20.7273 0.378906H3.27273C1.46525 0.378906 0 1.84416 0 3.65163V21.1062C0 22.9137 1.46525 24.3789 3.27273 24.3789H20.7273C22.5347 24.3789 24 22.9137 24 21.1062V3.65163C24 1.84416 22.5347 0.378906 20.7273 0.378906Z" fill="#0077B5"/>
<path d="M8.64169 6.92436C8.64169 7.32891 8.52173 7.72438 8.29697 8.06075C8.07221 8.39713 7.75276 8.6593 7.379 8.81411C7.00524 8.96893 6.59397 9.00944 6.19719 8.93051C5.80041 8.85159 5.43594 8.65678 5.14988 8.37072C4.86382 8.08465 4.66901 7.72019 4.59009 7.32341C4.51116 6.92663 4.55167 6.51536 4.70648 6.1416C4.8613 5.76784 5.12347 5.44838 5.45984 5.22363C5.79622 4.99887 6.19168 4.87891 6.59624 4.87891C7.13873 4.87891 7.65899 5.09441 8.04259 5.47801C8.42619 5.8616 8.64169 6.38187 8.64169 6.92436ZM8.17806 10.3335V19.3703C8.17841 19.4369 8.16559 19.503 8.14033 19.5647C8.11507 19.6264 8.07786 19.6825 8.03085 19.7298C7.98383 19.777 7.92794 19.8145 7.86638 19.8401C7.80482 19.8657 7.73881 19.8789 7.67215 19.8789H5.51624C5.44957 19.8791 5.38353 19.8661 5.3219 19.8407C5.26027 19.8152 5.20428 19.7779 5.15714 19.7307C5.11 19.6836 5.07264 19.6276 5.04721 19.566C5.02178 19.5043 5.00878 19.4383 5.00896 19.3716V10.3335C5.00896 10.1989 5.06241 10.0699 5.15754 9.97476C5.25267 9.87962 5.3817 9.82618 5.51624 9.82618H7.67215C7.80645 9.82654 7.93512 9.88014 8.02996 9.97524C8.1248 10.0703 8.17806 10.1992 8.17806 10.3335ZM19.4471 15.038V19.4125C19.4473 19.4738 19.4354 19.5346 19.412 19.5912C19.3886 19.6479 19.3543 19.6994 19.311 19.7427C19.2676 19.7861 19.2161 19.8204 19.1595 19.8438C19.1028 19.8671 19.0421 19.8791 18.9808 19.8789H16.6626C16.6013 19.8791 16.5406 19.8671 16.4839 19.8438C16.4273 19.8204 16.3758 19.7861 16.3324 19.7427C16.2891 19.6994 16.2547 19.6479 16.2314 19.5912C16.208 19.5346 16.1961 19.4738 16.1962 19.4125V15.173C16.1962 14.5403 16.3817 12.4021 14.5421 12.4021C13.1171 12.4021 12.8267 13.8653 12.7694 14.5225V19.4125C12.7694 19.5351 12.7212 19.6527 12.6352 19.7399C12.5493 19.8272 12.4324 19.8771 12.3099 19.8789H10.0708C10.0096 19.8789 9.94902 19.8668 9.89252 19.8434C9.83601 19.8199 9.78469 19.7856 9.74149 19.7422C9.6983 19.6989 9.66407 19.6475 9.64079 19.5909C9.6175 19.5343 9.6056 19.4737 9.60578 19.4125V10.2939C9.6056 10.2327 9.6175 10.1721 9.64079 10.1155C9.66407 10.059 9.6983 10.0075 9.74149 9.96422C9.78469 9.9209 9.83601 9.88652 9.89252 9.86307C9.94902 9.83961 10.0096 9.82754 10.0708 9.82754H12.3099C12.4336 9.82754 12.5522 9.87668 12.6396 9.96414C12.7271 10.0516 12.7762 10.1702 12.7762 10.2939V11.0821C13.3053 10.2885 14.0894 9.67618 15.7626 9.67618C19.469 9.67618 19.4471 13.1371 19.4471 15.038Z" fill="white"/>
</g>
<defs>
<clipPath id="clip0_3360_17662">
<rect width="24" height="24" fill="white" transform="translate(0 0.378906)"/>
</clipPath>
</defs>
</svg>
