<svg width="40" height="40" viewBox="0 0 40 40" fill="none" xmlns="http://www.w3.org/2000/svg">
<g clip-path="url(#clip0_3371_6047)">
<path d="M20 40C31.0457 40 40 31.0457 40 20C40 8.9543 31.0457 0 20 0C8.9543 0 0 8.9543 0 20C0 31.0457 8.9543 40 20 40Z" fill="#FED7C9"/>
<path d="M28.7508 17.4345L26.9766 15.6603L31.518 11.1181L28.8789 8.47979L24.3375 13.0212L22.568 11.2524L21.1625 18.8407L28.7508 17.4345ZM11.2492 22.5712L13.018 24.3399L8.47656 28.8821L11.1156 31.5204L15.657 26.979L17.432 28.7532L18.8383 21.1649L11.2492 22.5712ZM26.982 24.3399L28.7508 22.5712L21.1617 21.1649L22.568 28.7532L24.343 26.979L28.8844 31.5204L31.5234 28.8821L26.982 24.3399ZM18.8375 18.8407L17.432 11.2524L15.6625 13.0212L11.1211 8.479L8.48203 11.1181L13.0242 15.6603L11.2492 17.4345L18.8375 18.8407Z" fill="#FB5044"/>
</g>
<defs>
<clipPath id="clip0_3371_6047">
<rect width="40" height="40" fill="white"/>
</clipPath>
</defs>
</svg>
