<svg width="40" height="40" viewBox="0 0 40 40" fill="none" xmlns="http://www.w3.org/2000/svg">
<g clip-path="url(#clip0_3370_18570)">
<path fill-rule="evenodd" clip-rule="evenodd" d="M39.297 30.2987H25.9637V33.0872H28.8225C29.1974 33.0872 29.5255 33.3918 29.5255 33.7902V37.3285C29.5255 37.7269 29.1974 38.0315 28.8225 38.0315H11.1775C10.8026 38.0315 10.4745 37.7269 10.4745 37.3285V33.7902C10.4745 33.3918 10.8026 33.0872 11.1775 33.0872H14.0129V30.2987H0.702988C0.328061 30.2987 0 29.994 0 29.5957V6.58455C0 6.18619 0.328061 5.88156 0.702988 5.88156H11.5524C13.5911 3.4914 16.6139 1.96826 19.9883 1.96826C23.3626 1.96826 26.4089 3.4914 28.4241 5.88156H39.297C39.6719 5.88156 40 6.18619 40 6.58455V29.5957C40 29.994 39.6719 30.2987 39.297 30.2987ZM24.5577 30.2987H15.4189V33.0872H24.5577V30.2987ZM25.2607 34.4932H11.8805V36.6256H28.1195V34.4932H25.2841H25.2607ZM22.7299 18.301C22.5893 18.301 22.4487 18.2541 22.3081 18.1604L18.9104 15.6765C18.5354 15.3953 18.5354 14.8095 18.9104 14.5283L22.3081 12.0444C23.058 11.5055 23.8781 12.6302 23.1517 13.1926L20.5272 15.1141L23.1517 17.0356C23.6907 17.434 23.4095 18.301 22.7299 18.301ZM17.2701 14.1299C16.5905 14.1299 16.3093 13.2395 16.8483 12.8411L19.4728 10.9196L16.8483 8.99814C16.0984 8.45918 16.942 7.3344 17.6919 7.87336L21.0662 10.3572C21.4646 10.6384 21.4646 11.2243 21.0662 11.5055L17.6919 13.9894C17.5513 14.0831 17.4107 14.1299 17.2701 14.1299ZM19.9883 21.5113C15.3017 21.5113 11.5056 17.6918 11.5056 13.0286C11.5056 8.34202 15.3017 4.52245 19.9883 4.52245C24.6749 4.52245 28.4944 8.34202 28.4944 13.0286C28.4944 17.6918 24.6749 21.5113 19.9883 21.5113ZM19.9883 5.92843C16.075 5.92843 12.9115 9.1153 12.9115 13.0286C12.9115 16.9185 16.075 20.1053 19.9883 20.1053C23.9016 20.1053 27.0885 16.9185 27.0885 13.0286C27.0885 9.1153 23.9016 5.92843 19.9883 5.92843ZM10.3574 13.6613C10.5214 15.6531 11.2712 17.5746 12.5366 19.1212C12.56 19.168 12.6069 19.1915 12.6303 19.2383L13.263 19.9413L13.3099 19.9647L13.3568 20.0116C14.9736 21.5348 17.106 22.5189 19.4728 22.6595H20.5272C22.894 22.5189 25.0264 21.5348 26.6198 20.0116C26.8776 19.7773 27.1353 19.5195 27.3697 19.2383C27.3931 19.1915 27.44 19.168 27.4634 19.1212C28.7288 17.5512 29.4786 15.6062 29.6192 13.591C29.6426 13.4035 29.6426 13.2161 29.6426 13.0286C29.6426 7.68589 25.3076 3.37424 19.9883 3.37424C14.669 3.37424 10.3574 7.68589 10.3574 13.0286V13.6613ZM19.4728 24.0655H19.379L19.2853 24.0421H19.0275L18.9572 24.0186C16.1453 23.7609 13.7317 22.4955 11.9977 20.6443L11.9742 20.5974L11.9274 20.574C10.6151 19.168 9.65436 17.4106 9.20914 15.4656C9.06854 14.7861 8.97481 14.0831 8.95138 13.3801L8.92794 13.2864V13.2395C8.90451 12.1616 9.04511 11.0837 9.34974 10.0058H4.14763V26.151H35.8524V10.0058H30.6503C30.9783 11.154 31.0955 12.3022 31.0486 13.427C31.0252 14.0362 30.9549 14.622 30.8377 15.2313C30.8143 15.2547 30.8143 15.2782 30.8143 15.3016L30.7909 15.3719C30.3691 17.3871 29.3615 19.2149 27.9789 20.6677C26.2214 22.4955 23.8547 23.7609 21.0428 24.0186L20.9725 24.0421H20.7147C20.6913 24.0421 20.6444 24.0655 20.621 24.0655H19.4962H19.4728ZM36.5554 27.557H3.44464C3.04628 27.557 2.74165 27.2524 2.74165 26.854V9.30277C2.74165 8.92784 3.04628 8.59978 3.44464 8.59978H9.84183C10.0527 8.15455 10.2871 7.70933 10.5448 7.28754H1.40598V28.8927H38.594V7.28754H29.4552C29.7129 7.70933 29.9473 8.15455 30.1347 8.59978H36.5554C36.9303 8.59978 37.2583 8.92784 37.2583 9.30277V26.854C37.2583 27.2524 36.9303 27.557 36.5554 27.557Z" fill="#000002"/>
<path fill-rule="evenodd" clip-rule="evenodd" d="M19.9882 20.1054C23.9015 20.1054 27.0884 16.9185 27.0884 13.0286C27.0884 9.11534 23.9015 5.92847 19.9882 5.92847C16.0749 5.92847 12.9115 9.11534 12.9115 13.0286C12.9115 16.9185 16.0749 20.1054 19.9882 20.1054ZM22.3081 12.0445C23.058 11.5055 23.8781 12.6303 23.1517 13.1927L20.5272 15.1142L23.1517 17.0357C23.6906 17.434 23.4094 18.3011 22.7299 18.3011C22.5893 18.3011 22.4487 18.2542 22.3081 18.1605L18.9103 15.6766C18.5354 15.3954 18.5354 14.8095 18.9103 14.5283L22.3081 12.0445ZM17.6918 7.8734L21.0662 10.3573C21.4645 10.6385 21.4645 11.2243 21.0662 11.5055L17.6918 13.9894C17.5512 14.0831 17.4106 14.13 17.27 14.13C16.5905 14.13 16.3093 13.2395 16.8482 12.8412L19.4727 10.9197L16.8482 8.99818C16.0984 8.45922 16.942 7.33444 17.6918 7.8734Z" fill="#E6E6E6"/>
<path fill-rule="evenodd" clip-rule="evenodd" d="M19.9882 4.52248C24.6748 4.52248 28.4944 8.34205 28.4944 13.0286C28.4944 17.6918 24.6748 21.5114 19.9882 21.5114C15.3016 21.5114 11.5055 17.6918 11.5055 13.0286C11.5055 8.34205 15.3016 4.52248 19.9882 4.52248ZM27.4633 19.1212C28.7287 17.5512 29.4786 15.6063 29.6192 13.591C29.6426 13.4036 29.6426 13.2161 29.6426 13.0286C29.6426 7.68593 25.3075 3.37427 19.9882 3.37427C14.669 3.37427 10.3573 7.68593 10.3573 13.0286V13.6613C10.5213 15.6531 11.2712 17.5746 12.5366 19.1212L12.6303 19.2384L13.263 19.9413L13.3098 19.9648L13.3567 20.0116C14.9736 21.5348 17.106 22.519 19.4727 22.6596H20.5272C22.8939 22.519 25.0263 21.5348 26.6197 20.0116C26.8775 19.7773 27.1353 19.5196 27.3696 19.2384L27.4633 19.1212Z" fill="#FFA721"/>
<path fill-rule="evenodd" clip-rule="evenodd" d="M38.5941 7.2876H29.4552C29.713 7.70939 29.9473 8.15462 30.1348 8.59984H36.5554C36.9303 8.59984 37.2584 8.9279 37.2584 9.30283V26.8541C37.2584 27.2524 36.9303 27.5571 36.5554 27.5571H3.44467C3.04631 27.5571 2.74168 27.2524 2.74168 26.8541V9.30283C2.74168 8.9279 3.04631 8.59984 3.44467 8.59984H9.84186C10.0528 8.15462 10.2871 7.70939 10.5448 7.2876H1.40601V28.8928H38.5941V7.2876Z" fill="#25738B"/>
<path fill-rule="evenodd" clip-rule="evenodd" d="M35.8523 10.0059H30.6502C30.9783 11.1541 31.0954 12.3023 31.0486 13.4271C31.0251 14.0363 30.9548 14.6221 30.8377 15.2314L30.8142 15.3017L30.7908 15.372C30.369 17.3872 29.3614 19.215 27.9789 20.6678C26.2214 22.4956 23.8547 23.761 21.0427 24.0187L20.9724 24.0422H20.7147L20.6209 24.0656H19.379L19.2853 24.0422H19.0275L18.9572 24.0187C16.1452 23.761 13.7316 22.4956 11.9976 20.6444L11.9742 20.5975L11.9273 20.5741C10.6151 19.1681 9.65432 17.4107 9.20909 15.4657C9.0685 14.7862 8.97477 14.0832 8.95133 13.3802L8.9279 13.2865V13.2396C8.90447 12.1617 9.04506 11.0838 9.34969 10.0059H4.14758V26.1511H35.8523V10.0059Z" fill="#99FFFF"/>
<path fill-rule="evenodd" clip-rule="evenodd" d="M24.5577 30.2987H15.4189V33.0872H24.5577V30.2987ZM25.2607 34.4932H11.8805V36.6256H28.1195V34.4932H25.2841H25.2607Z" fill="#25738B"/>
</g>
<defs>
<clipPath id="clip0_3370_18570">
<rect width="40" height="40" fill="white"/>
</clipPath>
</defs>
</svg>
