<svg width="40" height="40" viewBox="0 0 40 40" fill="none" xmlns="http://www.w3.org/2000/svg">
<path d="M34.5945 23.4831H37.6577C38.5205 23.4831 39.2198 22.7834 39.2193 21.9206L39.2172 18.0574C39.2167 17.1953 38.5177 16.4966 37.6556 16.4966H34.5895C34.2218 14.9601 33.6122 13.4917 32.7835 12.1465L34.9488 9.98123C35.5589 9.37115 35.5587 8.38208 34.9484 7.77231L32.2158 5.0416C31.6058 4.43206 30.6173 4.4323 30.0077 5.04199L27.8411 7.20872C26.4963 6.38215 25.0288 5.77435 23.4934 5.40801V2.34338C23.4934 1.48088 22.7943 0.781738 21.9317 0.781738H18.0687C17.2062 0.781738 16.507 1.48088 16.507 2.34338V5.40801C14.9716 5.77433 13.5041 6.38214 12.1593 7.20872L9.99256 5.04215C9.38287 4.43246 8.39435 4.43222 7.78451 5.04176L5.05184 7.77231C4.4416 8.38216 4.44137 9.37123 5.05145 9.98123L7.21677 12.1465C6.38811 13.4917 5.7785 14.9601 5.41075 16.4966H2.34464C1.48253 16.4966 0.783462 17.1953 0.782993 18.0574L0.780884 21.9205C0.780415 22.7833 1.47971 23.483 2.34253 23.483H5.40575C5.77183 25.0221 6.38049 26.4931 7.20888 27.8408L5.04223 30.0075C4.43254 30.6172 4.43231 31.6057 5.04184 32.2155L7.77247 34.9482C8.38232 35.5584 9.37139 35.5587 9.98131 34.9486L12.1466 32.7833C13.4948 33.6138 14.9666 34.2242 16.5068 34.5917V37.6563C16.5068 38.5188 17.2059 39.218 18.0685 39.218H21.9315C22.794 39.218 23.4932 38.5188 23.4932 37.6563V34.5917C25.0557 34.2191 26.5233 33.6022 27.8533 32.7833L30.0187 34.9486C30.6287 35.5587 31.6178 35.5584 32.2276 34.9482L34.9582 32.2155C35.5677 31.6056 35.5675 30.6171 34.9578 30.0075L32.7912 27.8408C33.6197 26.4931 34.2284 25.0221 34.5945 23.4831Z" fill="#FFC66C"/>
<path d="M20.0001 29.682C25.3474 29.682 29.6822 25.3471 29.6822 19.9998C29.6822 14.6525 25.3474 10.3176 20.0001 10.3176C14.6527 10.3176 10.3179 14.6525 10.3179 19.9998C10.3179 25.3471 14.6527 29.682 20.0001 29.682Z" fill="#B3B6C3"/>
<path d="M20.0001 26.2465C23.45 26.2465 26.2467 23.4499 26.2467 20C26.2467 16.5501 23.45 13.7534 20.0001 13.7534C16.5502 13.7534 13.7535 16.5501 13.7535 20C13.7535 23.4499 16.5502 26.2465 20.0001 26.2465Z" fill="white"/>
<path d="M20.0001 30.4631C17.2053 30.4631 14.5778 29.3748 12.6017 27.3986C10.6255 25.4223 9.53711 22.7949 9.53711 20.0001C9.53711 17.2053 10.6254 14.5778 12.6017 12.6017C15.7303 9.47297 20.5143 8.65015 24.5058 10.554C24.8951 10.7397 25.0601 11.2056 24.8744 11.5949C24.6887 11.9841 24.2228 12.149 23.8335 11.9635C20.4377 10.3437 16.3677 11.044 13.7058 13.7059C12.0245 15.3871 11.0986 17.6224 11.0986 20.0001C11.0986 22.3778 12.0245 24.6132 13.7058 26.2944C15.3871 27.9756 17.6224 28.9016 20 28.9016C22.3777 28.9016 24.6131 27.9756 26.2943 26.2944C29.0576 23.5311 29.7016 19.3486 27.8969 15.8866C27.6976 15.5042 27.846 15.0326 28.2284 14.8332C28.6109 14.6338 29.0824 14.7823 29.2818 15.1647C30.3032 17.1241 30.6736 19.3211 30.3531 21.5182C30.026 23.7594 29.0045 25.7927 27.3987 27.3987C25.4224 29.3748 22.795 30.4631 20.0001 30.4631Z" fill="black"/>
<path d="M26.8786 13.9667C26.7753 13.9669 26.6731 13.9465 26.5778 13.9067C26.4825 13.8669 26.396 13.8086 26.3235 13.7351L26.2943 13.7058C25.9894 13.4009 25.9894 12.9065 26.2943 12.6015C26.5992 12.2966 27.0936 12.2966 27.3986 12.6015L27.4337 12.6368C27.7369 12.9434 27.7344 13.4377 27.4277 13.741C27.2817 13.8858 27.0843 13.967 26.8786 13.9667ZM20.0152 27.0327C19.2623 27.0327 18.501 26.9111 17.7578 26.6616C17.349 26.5243 17.1289 26.0816 17.2662 25.6728C17.4034 25.264 17.8462 25.0438 18.2549 25.1812C20.2375 25.8468 22.387 25.3426 23.8648 23.8649C24.8973 22.8325 25.4658 21.46 25.4658 20C25.4658 18.54 24.8973 17.1675 23.8649 16.1352C22.8325 15.1027 21.46 14.5342 20 14.5342C18.54 14.5342 17.1675 15.1027 16.1351 16.1351C14.6712 17.599 14.1614 19.732 14.8044 21.7016C14.9383 22.1115 14.7145 22.5524 14.3046 22.6862C13.8947 22.8201 13.4538 22.5963 13.32 22.1863C12.4934 19.6546 13.149 16.9128 15.031 15.0309C16.3583 13.7035 18.123 12.9726 20.0001 12.9726C21.8772 12.9726 23.6419 13.7036 24.9692 15.0309C26.2965 16.3583 27.0275 18.1229 27.0275 20C27.0275 21.8771 26.2965 23.6418 24.9691 24.9692C23.6234 26.3149 21.8443 27.0327 20.0152 27.0327Z" fill="black"/>
<path d="M15.6072 25.2219C15.4013 25.2222 15.2038 25.1409 15.0577 24.9958L15.0309 24.9691C14.726 24.6642 14.726 24.1698 15.0309 23.8648C15.3359 23.5599 15.8302 23.5599 16.1352 23.8648L16.1568 23.8863C16.4632 24.1898 16.4655 24.6841 16.162 24.9905C16.0895 25.0639 16.0031 25.1222 15.9079 25.162C15.8126 25.2017 15.7104 25.2221 15.6072 25.2219Z" fill="black"/>
<path d="M21.9316 39.9991H18.0685C16.7769 39.9991 15.726 38.9482 15.726 37.6566V35.1959C14.5214 34.8579 13.3616 34.3768 12.2714 33.7629L10.5335 35.5009C10.091 35.9433 9.50269 36.187 8.87707 36.187H8.87668C8.25081 36.1869 7.66253 35.943 7.22018 35.5003L4.48955 32.7676C3.57689 31.8543 3.57712 30.3685 4.49017 29.4555L6.22979 27.7158C5.61764 26.6263 5.13808 25.4674 4.80135 24.2639H2.34251C1.71657 24.2639 1.12821 24.0201 0.685706 23.5773C0.243204 23.1346 -0.000312201 22.5461 3.00397e-07 21.9201L0.00210968 18.057C0.00281281 16.766 1.05368 15.7158 2.34462 15.7158H4.80713C5.14499 14.5148 5.62508 13.3584 6.23721 12.2713L4.49924 10.5334C4.05674 10.0908 3.81306 9.50234 3.81314 8.87656C3.81322 8.25062 4.05713 7.66241 4.49978 7.21999L7.23245 4.48935C8.14574 3.57654 9.63152 3.57693 10.5446 4.48998L12.2843 6.22959C13.3708 5.6192 14.5262 5.14061 15.7261 4.80396V2.34349C15.7261 1.05184 16.7769 0.000976562 18.0686 0.000976562H21.9317C23.2234 0.000976562 24.2742 1.05184 24.2742 2.34349V4.8042C25.4741 5.14086 26.6295 5.61945 27.716 6.22983L29.4557 4.49013C30.3688 3.57708 31.8546 3.57685 32.7679 4.48959L35.5005 7.22015C35.9433 7.66257 36.1871 8.25085 36.1872 8.87671C36.1873 9.50258 35.9437 10.0909 35.5011 10.5335L33.7631 12.2714C34.3752 13.3586 34.8553 14.5149 35.1932 15.716H37.6557C38.9466 15.716 39.9975 16.7663 39.9982 18.0571L40.0003 21.9203C40.0007 22.5462 39.7572 23.1347 39.3147 23.5775C38.8722 24.0202 38.2837 24.264 37.6579 24.264H35.199C34.8622 25.4675 34.3826 26.6264 33.7705 27.7159L35.5102 29.4556C36.4233 30.3687 36.4235 31.8545 35.5108 32.7677L32.7802 35.5004C32.3378 35.9431 31.7494 36.187 31.1236 36.1871H31.1232C30.4975 36.1871 29.9093 35.9435 29.4668 35.501L27.7289 33.763C26.6388 34.3769 25.479 34.858 24.2743 35.196V37.6567C24.2741 38.9482 23.2233 39.9991 21.9316 39.9991ZM12.147 32.0026C12.2915 32.0025 12.4331 32.0426 12.5561 32.1184C13.8336 32.9057 15.2284 33.4843 16.688 33.8324C16.8588 33.8731 17.0109 33.9702 17.1197 34.108C17.2285 34.2458 17.2877 34.4163 17.2877 34.5919V37.6565C17.2877 38.0871 17.638 38.4374 18.0686 38.4374H21.9317C22.3623 38.4374 22.7126 38.0871 22.7126 37.6565V34.5919C22.7126 34.4163 22.7718 34.2458 22.8806 34.108C22.9894 33.9702 23.1415 33.8731 23.3123 33.8324C24.7719 33.4843 26.1668 32.9057 27.4442 32.1184C27.5938 32.0264 27.7701 31.9874 27.9446 32.0079C28.119 32.0283 28.2815 32.107 28.4057 32.2312L30.5711 34.3965C30.7186 34.544 30.9147 34.6252 31.1233 34.6252C31.3319 34.6252 31.528 34.5438 31.6755 34.3963L34.4062 31.6637C34.7104 31.3592 34.7103 30.864 34.4059 30.5597L32.2393 28.393C32.1152 28.2688 32.0365 28.1065 32.016 27.9322C31.9954 27.7579 32.0342 27.5817 32.1261 27.4322C32.9114 26.1551 33.4883 24.761 33.835 23.3024C33.8756 23.1315 33.9727 22.9792 34.1105 22.8703C34.2484 22.7614 34.419 22.7021 34.5947 22.7022H37.6579C37.8666 22.7022 38.0626 22.6209 38.2102 22.4733C38.3577 22.3258 38.4387 22.1296 38.4387 21.921L38.4366 18.0578C38.4363 17.6275 38.086 17.2775 37.6557 17.2775H34.5897C34.4142 17.2774 34.2438 17.2183 34.106 17.1096C33.9682 17.0009 33.8711 16.849 33.8302 16.6783C33.482 15.2221 32.9042 13.8305 32.1186 12.5559C32.0265 12.4063 31.9876 12.23 32.008 12.0555C32.0285 11.8811 32.1072 11.7186 32.2314 11.5944L34.3967 9.42906C34.4694 9.3567 34.5271 9.27063 34.5663 9.17583C34.6056 9.08103 34.6257 8.97939 34.6254 8.87679C34.6256 8.77419 34.6055 8.67256 34.5663 8.57778C34.527 8.48299 34.4693 8.39694 34.3965 8.3246L31.6639 5.59397C31.3594 5.28975 30.8642 5.28975 30.5599 5.5942L28.3932 7.76101C28.2691 7.88516 28.1067 7.96386 27.9324 7.98439C27.7581 8.00491 27.5819 7.96607 27.4324 7.87413C26.158 7.09061 24.7673 6.51459 23.3121 6.16764C23.1413 6.1269 22.9892 6.02979 22.8804 5.89197C22.7716 5.75416 22.7124 5.5837 22.7124 5.40811V2.34349C22.7124 1.91294 22.3621 1.56262 21.9316 1.56262H18.0684C17.6379 1.56262 17.2876 1.91294 17.2876 2.34349V5.40811C17.2876 5.5837 17.2284 5.75416 17.1196 5.89197C17.0108 6.02979 16.8587 6.1269 16.6879 6.16764C15.2327 6.51462 13.842 7.09063 12.5676 7.87413C12.4181 7.966 12.2419 8.0048 12.0676 7.98428C11.8933 7.96376 11.731 7.8851 11.6068 7.76101L9.44019 5.59436C9.13574 5.2899 8.64058 5.2899 8.33621 5.59412L5.60346 8.32476C5.45588 8.47226 5.37463 8.66835 5.37463 8.87695C5.37463 9.08554 5.4558 9.28172 5.6033 9.42922L7.76862 11.5945C7.89284 11.7188 7.97153 11.8812 7.99199 12.0557C8.01245 12.2302 7.97347 12.4064 7.88136 12.556C7.09583 13.8307 6.51809 15.2222 6.16979 16.6785C6.12895 16.8491 6.0318 17.0011 5.89401 17.1098C5.75622 17.2185 5.58584 17.2776 5.41033 17.2776H2.34462C1.9143 17.2776 1.56399 17.6277 1.56376 18.0581L1.56165 21.9211C1.56131 22.0237 1.58133 22.1253 1.62056 22.2202C1.65978 22.315 1.71743 22.4011 1.79016 22.4735C1.86251 22.5463 1.94857 22.604 2.04337 22.6432C2.13817 22.6825 2.23982 22.7026 2.34243 22.7023H5.40565C5.58133 22.7023 5.75188 22.7616 5.88974 22.8705C6.02759 22.9794 6.12468 23.1316 6.16534 23.3026C6.51208 24.7611 7.08891 26.1552 7.87417 27.4323C7.96605 27.5819 8.00487 27.758 7.98434 27.9324C7.96382 28.1067 7.88515 28.269 7.76105 28.3931L5.5944 30.5598C5.29002 30.8641 5.28994 31.3594 5.59416 31.6638L8.3248 34.3965C8.39713 34.4693 8.48318 34.527 8.57796 34.5662C8.67275 34.6055 8.77439 34.6256 8.87699 34.6253H8.87714C8.97972 34.6256 9.08134 34.6056 9.17611 34.5663C9.27088 34.5271 9.35692 34.4694 9.42926 34.3967L11.5946 32.2313C11.6671 32.1587 11.7532 32.1012 11.848 32.0619C11.9428 32.0227 12.0444 32.0025 12.147 32.0026Z" fill="black"/>
</svg>
