<svg width="40" height="40" viewBox="0 0 40 40" fill="none" xmlns="http://www.w3.org/2000/svg">
<path d="M20.0781 27.8125H29.4531V33.2812H20.0781V27.8125Z" fill="#3E5959"/>
<path d="M24.7656 27.8125H29.4531V33.2812H24.7656V27.8125Z" fill="#293939"/>
<path d="M12.8906 35.2344H1.17188C0.524609 35.2344 0 34.7098 0 34.0625V8.28125C0 7.63398 0.524609 7.10938 1.17188 7.10938H12.8906C13.5379 7.10938 14.0625 7.63398 14.0625 8.28125V34.0625C14.0625 34.7098 13.5379 35.2344 12.8906 35.2344Z" fill="#3E5959"/>
<path d="M14.0625 8.28125V34.0625C14.0625 34.7095 13.5376 35.2344 12.8906 35.2344H7.03125V7.10938H12.8906C13.5376 7.10938 14.0625 7.6343 14.0625 8.28125Z" fill="#293939"/>
<path d="M0 12.9688H14.0625V17.6562H0V12.9688Z" fill="#547983"/>
<path d="M7.03125 12.9688H14.0625V17.6562H7.03125V12.9688Z" fill="#3E5959"/>
<path d="M8.20312 31.9531C8.20312 32.6004 7.67852 33.125 7.03125 33.125C6.38398 33.125 5.85938 32.6004 5.85938 31.9531C5.85938 31.3059 6.38398 30.7812 7.03125 30.7812C7.67852 30.7812 8.20312 31.3059 8.20312 31.9531Z" fill="#81E885"/>
<path d="M8.20312 31.9531C8.20312 32.6001 7.6782 33.125 7.03125 33.125V30.7812C7.6782 30.7812 8.20312 31.3062 8.20312 31.9531Z" fill="#5DC983"/>
<path d="M37.6562 28.2031H11.875C10.5826 28.2031 9.53125 27.1518 9.53125 25.8594V7.10938C9.53125 5.81695 10.5826 4.76562 11.875 4.76562H37.6562C38.9487 4.76562 40 5.81695 40 7.10938V25.8594C40 27.1518 38.9487 28.2031 37.6562 28.2031Z" fill="#547983"/>
<path d="M40 7.10938V25.8594C40 27.1516 38.9484 28.2031 37.6562 28.2031H24.7656V4.76562H37.6562C38.9484 4.76562 40 5.81719 40 7.10938Z" fill="#3E5959"/>
<path d="M11.875 7.10938H37.6562V25.8594H11.875V7.10938Z" fill="#19C0EF"/>
<path d="M24.7656 7.10938H37.6562V25.8594H24.7656V7.10938Z" fill="#159BE1"/>
<path d="M31.7969 35.2344H17.7344C17.0871 35.2344 16.5625 34.7098 16.5625 34.0625C16.5625 33.4152 17.0871 32.8906 17.7344 32.8906H31.7969C32.4441 32.8906 32.9688 33.4152 32.9688 34.0625C32.9688 34.7098 32.4441 35.2344 31.7969 35.2344Z" fill="#547983"/>
<path d="M32.9688 34.0625C32.9688 34.7095 32.4438 35.2344 31.7969 35.2344H24.7656V32.8906H31.7969C32.4438 32.8906 32.9688 33.4155 32.9688 34.0625Z" fill="#3E5959"/>
</svg>
