<svg width="24" height="25" viewBox="0 0 24 25" fill="none" xmlns="http://www.w3.org/2000/svg">
<g clip-path="url(#clip0_3360_17668)">
<path d="M12.8034 11.9692L18.2043 19.6944H15.9878L11.5806 13.3907V13.3903L10.9335 12.4649L5.78516 5.10059H8.00168L12.1564 11.0439L12.8034 11.9692Z" fill="black"/>
<path d="M21.4067 0.378906H2.59325C1.16108 0.378906 0 1.53998 0 2.97216V21.7857C0 23.2178 1.16108 24.3789 2.59325 24.3789H21.4067C22.8389 24.3789 24 23.2178 24 21.7857V2.97216C24 1.53998 22.8389 0.378906 21.4067 0.378906ZM15.308 20.7314L10.8481 14.2406L5.26435 20.7314H3.82122L10.2073 13.3084L3.82122 4.01411H8.69203L12.9152 10.1604L18.2026 4.01411H19.6458L13.5562 11.0928H13.5558L20.1788 20.7314H15.308Z" fill="black"/>
</g>
<defs>
<clipPath id="clip0_3360_17668">
<rect width="24" height="24" fill="white" transform="translate(0 0.378906)"/>
</clipPath>
</defs>
</svg>
